<svg width="56" height="56" viewBox="0 0 56 56" fill="none" xmlns="http://www.w3.org/2000/svg">
<path d="M42.9091 37.0908H13.8182C13.336 37.0908 12.8735 37.2824 12.5325 37.6234C12.1916 37.9643 12 38.4268 12 38.909V41.9817C12.0048 43.5764 12.6404 45.1043 13.768 46.2319C14.8956 47.3595 16.4235 47.9951 18.0182 47.9999H38.7091C40.3037 47.9951 41.8317 47.3595 42.9593 46.2319C44.0869 45.1043 44.7225 43.5764 44.7273 41.9817V38.909C44.7273 38.4268 44.5357 37.9643 44.1947 37.6234C43.8538 37.2824 43.3913 37.0908 42.9091 37.0908Z" fill="#FFAD0D"/>
<path d="M13.8182 24.3636H42.9091C43.3913 24.3636 43.8538 24.1721 44.1947 23.8311C44.5357 23.4901 44.7273 23.0277 44.7273 22.5455C44.7273 14.5273 37.4545 8 28.3636 8C19.2727 8 12 14.5273 12 22.5455C12 23.0277 12.1916 23.4901 12.5325 23.8311C12.8735 24.1721 13.336 24.3636 13.8182 24.3636Z" fill="#FFAD0D"/>
<path d="M26.5458 17.0914H24.7276C24.2454 17.0914 23.7829 16.8999 23.442 16.5589C23.101 16.2179 22.9094 15.7555 22.9094 15.2733C22.9094 14.791 23.101 14.3286 23.442 13.9876C23.7829 13.6466 24.2454 13.4551 24.7276 13.4551H26.5458C27.028 13.4551 27.4905 13.6466 27.8314 13.9876C28.1724 14.3286 28.364 14.791 28.364 15.2733C28.364 15.7555 28.1724 16.2179 27.8314 16.5589C27.4905 16.8999 27.028 17.0914 26.5458 17.0914Z" fill="#FFEC95"/>
<path d="M33.818 18.9098H31.9998C31.5176 18.9098 31.0551 18.7182 30.7142 18.3773C30.3732 18.0363 30.1816 17.5738 30.1816 17.0916C30.1816 16.6094 30.3732 16.1469 30.7142 15.806C31.0551 15.465 31.5176 15.2734 31.9998 15.2734H33.818C34.3002 15.2734 34.7627 15.465 35.1037 15.806C35.4446 16.1469 35.6362 16.6094 35.6362 17.0916C35.6362 17.5738 35.4446 18.0363 35.1037 18.3773C34.7627 18.7182 34.3002 18.9098 33.818 18.9098Z" fill="#FFEC95"/>
<path d="M42.9091 35.2721H13.8182C13.336 35.2721 12.8735 35.0805 12.5325 34.7396C12.1916 34.3986 12 33.9361 12 33.4539C12 32.9717 12.1916 32.5092 12.5325 32.1683C12.8735 31.8273 13.336 31.6357 13.8182 31.6357H42.9091C43.3913 31.6357 43.8538 31.8273 44.1947 32.1683C44.5357 32.5092 44.7273 32.9717 44.7273 33.4539C44.7273 33.9361 44.5357 34.3986 44.1947 34.7396C43.8538 35.0805 43.3913 35.2721 42.9091 35.2721Z" fill="#934D2B"/>
<path d="M42.9091 29.818H13.8182C13.336 29.818 12.8735 29.6264 12.5325 29.2855C12.1916 28.9445 12 28.482 12 27.9998C12 27.5176 12.1916 27.0551 12.5325 26.7142C12.8735 26.3732 13.336 26.1816 13.8182 26.1816H42.9091C43.3913 26.1816 43.8538 26.3732 44.1947 26.7142C44.5357 27.0551 44.7273 27.5176 44.7273 27.9998C44.7273 28.482 44.5357 28.9445 44.1947 29.2855C43.8538 29.6264 43.3913 29.818 42.9091 29.818Z" fill="#934D2B"/>
</svg>
