<svg width="56" height="56" viewBox="0 0 56 56" fill="none" xmlns="http://www.w3.org/2000/svg">
<path d="M41.5304 14L39.5304 10.9913C39.7032 10.8312 39.8416 10.6376 39.9372 10.4223C40.0329 10.2071 40.0838 9.97466 40.087 9.73913C40.087 9.27788 39.9037 8.83553 39.5776 8.50938C39.2514 8.18323 38.8091 8 38.3478 8H17.4783C17.017 8 16.5747 8.18323 16.2485 8.50938C15.9224 8.83553 15.7391 9.27788 15.7391 9.73913C15.7423 9.97466 15.7932 10.2071 15.8889 10.4223C15.9845 10.6376 16.1229 10.8312 16.2957 10.9913L14.2957 14C14.1055 14.283 14.0027 14.6156 14 14.9565V41.913C14 45.3913 17.4783 48 21.8087 48H33.9826C38.3478 48 41.8261 45.3217 41.8261 41.913V14.9565C41.8234 14.6156 41.7206 14.283 41.5304 14Z" fill="#D91F20"/>
<path d="M41.5304 14L39.5304 10.9913C39.7032 10.8312 39.8416 10.6376 39.9372 10.4223C40.0329 10.2071 40.0838 9.97466 40.087 9.73913C40.087 9.27788 39.9037 8.83553 39.5776 8.50938C39.2514 8.18323 38.8091 8 38.3478 8H17.4783C17.017 8 16.5747 8.18323 16.2485 8.50938C15.9224 8.83553 15.7391 9.27788 15.7391 9.73913C15.7423 9.97466 15.7932 10.2071 15.8889 10.4223C15.9845 10.6376 16.1229 10.8312 16.2957 10.9913L14.2957 14C14.1055 14.283 14.0027 14.6156 14 14.9565V41.913C14 45.3913 17.4783 48 21.8087 48H33.9826C38.3478 48 41.8261 45.3217 41.8261 41.913V14.9565C41.8234 14.6156 41.7206 14.283 41.5304 14ZM38.3478 41.913C38.3478 43.1478 36.6087 44.5217 34.0174 44.5217H21.8435C19.2174 44.5217 17.4783 43.1478 17.4783 41.913V15.4783L20.1565 11.4783H35.6696L38.3478 15.4783V41.913Z" fill="#AD1A22"/>
<path d="M36.7809 20.0157C33.5195 29.8877 30.0677 34.2 21.9538 40.5012C21.7081 40.8408 21.3239 41.059 20.8859 41.1079C20.4479 41.1568 19.992 41.0323 19.6183 40.7619C19.2447 40.4914 18.984 40.0972 18.8935 39.6658C18.8031 39.2345 18.8904 38.8014 19.1362 38.4618C27.5093 32.1391 30.7909 27.7703 33.9632 17.9763C34.209 17.6368 34.5931 17.4185 35.0311 17.3697C35.4691 17.3208 35.9251 17.4452 36.2987 17.7157C36.6724 17.9861 36.9331 18.3804 37.0235 18.8117C37.1139 19.2431 37.0266 19.6761 36.7809 20.0157Z" fill="white"/>
</svg>
