<svg width="361" height="204" viewBox="0 0 361 204" fill="none" xmlns="http://www.w3.org/2000/svg">
<g clip-path="url(#clip0_408_11234)">
<rect width="361" height="204" rx="16" fill="url(#paint0_linear_408_11234)"/>
<path d="M21.136 30.184H29.488V32.752H21.136V30.184ZM21.376 37.384H30.856V40H18.256V23.2H30.52V25.816H21.376V37.384ZM41.8249 40V37.408L41.6569 36.856V32.32C41.6569 31.44 41.3929 30.76 40.8649 30.28C40.3369 29.784 39.5369 29.536 38.4649 29.536C37.7449 29.536 37.0329 29.648 36.3289 29.872C35.6409 30.096 35.0569 30.408 34.5769 30.808L33.4009 28.624C34.0889 28.096 34.9049 27.704 35.8489 27.448C36.8089 27.176 37.8009 27.04 38.8249 27.04C40.6809 27.04 42.1129 27.488 43.1209 28.384C44.1449 29.264 44.6569 30.632 44.6569 32.488V40H41.8249ZM37.7929 40.168C36.8329 40.168 35.9929 40.008 35.2729 39.688C34.5529 39.352 33.9929 38.896 33.5929 38.32C33.2089 37.728 33.0169 37.064 33.0169 36.328C33.0169 35.608 33.1849 34.96 33.5209 34.384C33.8729 33.808 34.4409 33.352 35.2249 33.016C36.0089 32.68 37.0489 32.512 38.3449 32.512H42.0649V34.504H38.5609C37.5369 34.504 36.8489 34.672 36.4969 35.008C36.1449 35.328 35.9689 35.728 35.9689 36.208C35.9689 36.752 36.1849 37.184 36.6169 37.504C37.0489 37.824 37.6489 37.984 38.4169 37.984C39.1529 37.984 39.8089 37.816 40.3849 37.48C40.9769 37.144 41.4009 36.648 41.6569 35.992L42.1609 37.792C41.8729 38.544 41.3529 39.128 40.6009 39.544C39.8649 39.96 38.9289 40.168 37.7929 40.168ZM52.4671 40.168C51.3951 40.168 50.3631 40.032 49.3711 39.76C48.3951 39.472 47.6191 39.128 47.0431 38.728L48.1951 36.448C48.7711 36.816 49.4591 37.12 50.2591 37.36C51.0591 37.6 51.8591 37.72 52.6591 37.72C53.6031 37.72 54.2831 37.592 54.6991 37.336C55.1311 37.08 55.3471 36.736 55.3471 36.304C55.3471 35.952 55.2031 35.688 54.9151 35.512C54.6271 35.32 54.2511 35.176 53.7871 35.08C53.3231 34.984 52.8031 34.896 52.2271 34.816C51.6671 34.736 51.0991 34.632 50.5231 34.504C49.9631 34.36 49.4511 34.16 48.9871 33.904C48.5231 33.632 48.1471 33.272 47.8591 32.824C47.5711 32.376 47.4271 31.784 47.4271 31.048C47.4271 30.232 47.6591 29.528 48.1231 28.936C48.5871 28.328 49.2351 27.864 50.0671 27.544C50.9151 27.208 51.9151 27.04 53.0671 27.04C53.9311 27.04 54.8031 27.136 55.6831 27.328C56.5631 27.52 57.2911 27.792 57.8671 28.144L56.7151 30.424C56.1071 30.056 55.4911 29.808 54.8671 29.68C54.2591 29.536 53.6511 29.464 53.0431 29.464C52.1311 29.464 51.4511 29.6 51.0031 29.872C50.5711 30.144 50.3551 30.488 50.3551 30.904C50.3551 31.288 50.4991 31.576 50.7871 31.768C51.0751 31.96 51.4511 32.112 51.9151 32.224C52.3791 32.336 52.8911 32.432 53.4511 32.512C54.0271 32.576 54.5951 32.68 55.1551 32.824C55.7151 32.968 56.2271 33.168 56.6911 33.424C57.1711 33.664 57.5551 34.008 57.8431 34.456C58.1311 34.904 58.2751 35.488 58.2751 36.208C58.2751 37.008 58.0351 37.704 57.5551 38.296C57.0911 38.888 56.4271 39.352 55.5631 39.688C54.6991 40.008 53.6671 40.168 52.4671 40.168ZM61.6803 44.824C61.0563 44.824 60.4323 44.72 59.8083 44.512C59.1843 44.304 58.6643 44.016 58.2482 43.648L59.4482 41.44C59.7523 41.712 60.0963 41.928 60.4803 42.088C60.8643 42.248 61.2563 42.328 61.6562 42.328C62.2003 42.328 62.6403 42.192 62.9763 41.92C63.3123 41.648 63.6243 41.192 63.9123 40.552L64.6562 38.872L64.8963 38.512L69.7443 27.184H72.6243L66.6243 41.032C66.2243 41.992 65.7763 42.752 65.2803 43.312C64.8003 43.872 64.2563 44.264 63.6483 44.488C63.0563 44.712 62.4003 44.824 61.6803 44.824ZM64.3203 40.456L58.5362 27.184H61.6562L66.3603 38.248L64.3203 40.456ZM81.4201 40V23.2H83.9881L91.3321 35.464H89.9881L97.2121 23.2H99.7801L99.8041 40H96.8521L96.8281 27.832H97.4521L91.3081 38.08H89.9161L83.6761 27.832H84.3961V40H81.4201ZM109.814 40.168C108.502 40.168 107.334 39.888 106.31 39.328C105.286 38.752 104.478 37.968 103.886 36.976C103.294 35.984 102.998 34.856 102.998 33.592C102.998 32.312 103.294 31.184 103.886 30.208C104.478 29.216 105.286 28.44 106.31 27.88C107.334 27.32 108.502 27.04 109.814 27.04C111.142 27.04 112.318 27.32 113.342 27.88C114.382 28.44 115.19 29.208 115.766 30.184C116.358 31.16 116.654 32.296 116.654 33.592C116.654 34.856 116.358 35.984 115.766 36.976C115.19 37.968 114.382 38.752 113.342 39.328C112.318 39.888 111.142 40.168 109.814 40.168ZM109.814 37.6C110.55 37.6 111.206 37.44 111.782 37.12C112.358 36.8 112.806 36.336 113.126 35.728C113.462 35.12 113.63 34.408 113.63 33.592C113.63 32.76 113.462 32.048 113.126 31.456C112.806 30.848 112.358 30.384 111.782 30.064C111.206 29.744 110.558 29.584 109.838 29.584C109.102 29.584 108.446 29.744 107.87 30.064C107.31 30.384 106.862 30.848 106.526 31.456C106.19 32.048 106.022 32.76 106.022 33.592C106.022 34.408 106.19 35.12 106.526 35.728C106.862 36.336 107.31 36.8 107.87 37.12C108.446 37.44 109.094 37.6 109.814 37.6ZM126.795 27.04C127.819 27.04 128.731 27.24 129.531 27.64C130.347 28.04 130.987 28.656 131.451 29.488C131.915 30.304 132.147 31.36 132.147 32.656V40H129.147V33.04C129.147 31.904 128.875 31.056 128.331 30.496C127.803 29.936 127.059 29.656 126.099 29.656C125.395 29.656 124.771 29.8 124.227 30.088C123.683 30.376 123.259 30.808 122.955 31.384C122.667 31.944 122.523 32.656 122.523 33.52V40H119.523V27.184H122.379V30.64L121.875 29.584C122.323 28.768 122.971 28.144 123.819 27.712C124.683 27.264 125.675 27.04 126.795 27.04ZM142 40.168C140.576 40.168 139.328 39.888 138.256 39.328C137.2 38.752 136.376 37.968 135.784 36.976C135.208 35.984 134.92 34.856 134.92 33.592C134.92 32.312 135.2 31.184 135.76 30.208C136.336 29.216 137.12 28.44 138.112 27.88C139.12 27.32 140.264 27.04 141.544 27.04C142.792 27.04 143.904 27.312 144.88 27.856C145.856 28.4 146.624 29.168 147.184 30.16C147.744 31.152 148.024 32.32 148.024 33.664C148.024 33.792 148.016 33.936 148 34.096C148 34.256 147.992 34.408 147.976 34.552H137.296V32.56H146.392L145.216 33.184C145.232 32.448 145.08 31.8 144.76 31.24C144.44 30.68 144 30.24 143.44 29.92C142.896 29.6 142.264 29.44 141.544 29.44C140.808 29.44 140.16 29.6 139.6 29.92C139.056 30.24 138.624 30.688 138.304 31.264C138 31.824 137.848 32.488 137.848 33.256V33.736C137.848 34.504 138.024 35.184 138.376 35.776C138.728 36.368 139.224 36.824 139.864 37.144C140.504 37.464 141.24 37.624 142.072 37.624C142.792 37.624 143.44 37.512 144.016 37.288C144.592 37.064 145.104 36.712 145.552 36.232L147.16 38.08C146.584 38.752 145.856 39.272 144.976 39.64C144.112 39.992 143.12 40.168 142 40.168ZM151.727 44.824C151.103 44.824 150.479 44.72 149.855 44.512C149.231 44.304 148.711 44.016 148.295 43.648L149.495 41.44C149.799 41.712 150.143 41.928 150.527 42.088C150.911 42.248 151.303 42.328 151.703 42.328C152.247 42.328 152.687 42.192 153.023 41.92C153.359 41.648 153.671 41.192 153.959 40.552L154.703 38.872L154.943 38.512L159.791 27.184H162.671L156.671 41.032C156.271 41.992 155.823 42.752 155.327 43.312C154.847 43.872 154.303 44.264 153.695 44.488C153.103 44.712 152.447 44.824 151.727 44.824ZM154.367 40.456L148.583 27.184H151.703L156.407 38.248L154.367 40.456Z" fill="#161616"/>
<path d="M20.32 92.488V79.016C20.32 77.2453 20.704 75.7093 21.472 74.408C22.2613 73.0853 23.392 72.072 24.864 71.368C26.3573 70.6427 28.16 70.28 30.272 70.28C31.5733 70.28 32.736 70.408 33.76 70.664C34.784 70.8987 35.7227 71.272 36.576 71.784L35.264 75.176C34.56 74.7067 33.76 74.3867 32.864 74.216C31.9893 74.024 31.0507 73.928 30.048 73.928C28.2133 73.928 26.8267 74.3547 25.888 75.208C24.9493 76.0613 24.48 77.32 24.48 78.984V92.488H20.32ZM16.96 93V89.512H36.032V93H16.96ZM16.96 83.112V80.488H32.576V83.112H16.96ZM45.3945 93.32C43.8158 93.32 42.2692 93.096 40.7545 92.648C39.2612 92.1787 38.0025 91.5387 36.9785 90.728L38.7385 87.496C39.5492 88.1573 40.5305 88.6907 41.6825 89.096C42.8558 89.5013 44.0718 89.704 45.3305 89.704C46.8025 89.704 47.9545 89.3947 48.7865 88.776C49.6398 88.1573 50.0665 87.3253 50.0665 86.28C50.0665 85.576 49.8852 84.9573 49.5225 84.424C49.1812 83.8907 48.5625 83.4853 47.6665 83.208C46.7918 82.9307 45.5865 82.792 44.0505 82.792H38.6425L39.7945 70.6H52.9465V74.088H41.3305L43.5065 72.104L42.6425 81.224L40.4665 79.272H44.9785C47.1972 79.272 48.9785 79.5707 50.3225 80.168C51.6878 80.744 52.6798 81.5547 53.2985 82.6C53.9385 83.624 54.2585 84.7973 54.2585 86.12C54.2585 87.4213 53.9385 88.616 53.2985 89.704C52.6585 90.792 51.6772 91.6667 50.3545 92.328C49.0532 92.9893 47.3998 93.32 45.3945 93.32ZM66.002 93.32C64.2313 93.32 62.6313 92.872 61.202 91.976C59.794 91.08 58.6847 89.7787 57.874 88.072C57.0633 86.344 56.658 84.2533 56.658 81.8C56.658 79.3467 57.0633 77.2667 57.874 75.56C58.6847 73.832 59.794 72.52 61.202 71.624C62.6313 70.728 64.2313 70.28 66.002 70.28C67.794 70.28 69.394 70.728 70.802 71.624C72.21 72.52 73.3193 73.832 74.13 75.56C74.962 77.2667 75.378 79.3467 75.378 81.8C75.378 84.2533 74.962 86.344 74.13 88.072C73.3193 89.7787 72.21 91.08 70.802 91.976C69.394 92.872 67.794 93.32 66.002 93.32ZM66.002 89.704C67.0473 89.704 67.954 89.4267 68.722 88.872C69.49 88.296 70.0873 87.4213 70.514 86.248C70.962 85.0747 71.186 83.592 71.186 81.8C71.186 79.9867 70.962 78.504 70.514 77.352C70.0873 76.1787 69.49 75.3147 68.722 74.76C67.954 74.184 67.0473 73.896 66.002 73.896C64.9993 73.896 64.1033 74.184 63.314 74.76C62.546 75.3147 61.938 76.1787 61.49 77.352C61.0633 78.504 60.85 79.9867 60.85 81.8C60.85 83.592 61.0633 85.0747 61.49 86.248C61.938 87.4213 62.546 88.296 63.314 88.872C64.1033 89.4267 64.9993 89.704 66.002 89.704ZM80.3103 93.224C79.5849 93.224 78.9663 92.9787 78.4543 92.488C77.9423 91.976 77.6863 91.336 77.6863 90.568C77.6863 89.7573 77.9423 89.1173 78.4543 88.648C78.9663 88.1573 79.5849 87.912 80.3103 87.912C81.0356 87.912 81.6543 88.1573 82.1663 88.648C82.6783 89.1173 82.9343 89.7573 82.9343 90.568C82.9343 91.336 82.6783 91.976 82.1663 92.488C81.6543 92.9787 81.0356 93.224 80.3103 93.224ZM94.5958 93.32C92.8251 93.32 91.2251 92.872 89.7958 91.976C88.3878 91.08 87.2784 89.7787 86.4678 88.072C85.6571 86.344 85.2518 84.2533 85.2518 81.8C85.2518 79.3467 85.6571 77.2667 86.4678 75.56C87.2784 73.832 88.3878 72.52 89.7958 71.624C91.2251 70.728 92.8251 70.28 94.5958 70.28C96.3878 70.28 97.9878 70.728 99.3958 71.624C100.804 72.52 101.913 73.832 102.724 75.56C103.556 77.2667 103.972 79.3467 103.972 81.8C103.972 84.2533 103.556 86.344 102.724 88.072C101.913 89.7787 100.804 91.08 99.3958 91.976C97.9878 92.872 96.3878 93.32 94.5958 93.32ZM94.5958 89.704C95.6411 89.704 96.5478 89.4267 97.3158 88.872C98.0838 88.296 98.6811 87.4213 99.1078 86.248C99.5558 85.0747 99.7798 83.592 99.7798 81.8C99.7798 79.9867 99.5558 78.504 99.1078 77.352C98.6811 76.1787 98.0838 75.3147 97.3158 74.76C96.5478 74.184 95.6411 73.896 94.5958 73.896C93.5931 73.896 92.6971 74.184 91.9078 74.76C91.1398 75.3147 90.5318 76.1787 90.0838 77.352C89.6571 78.504 89.4438 79.9867 89.4438 81.8C89.4438 83.592 89.6571 85.0747 90.0838 86.248C90.5318 87.4213 91.1398 88.296 91.9078 88.872C92.6971 89.4267 93.5931 89.704 94.5958 89.704ZM116.127 93.32C114.356 93.32 112.756 92.872 111.327 91.976C109.919 91.08 108.81 89.7787 107.999 88.072C107.188 86.344 106.783 84.2533 106.783 81.8C106.783 79.3467 107.188 77.2667 107.999 75.56C108.81 73.832 109.919 72.52 111.327 71.624C112.756 70.728 114.356 70.28 116.127 70.28C117.919 70.28 119.519 70.728 120.927 71.624C122.335 72.52 123.444 73.832 124.255 75.56C125.087 77.2667 125.503 79.3467 125.503 81.8C125.503 84.2533 125.087 86.344 124.255 88.072C123.444 89.7787 122.335 91.08 120.927 91.976C119.519 92.872 117.919 93.32 116.127 93.32ZM116.127 89.704C117.172 89.704 118.079 89.4267 118.847 88.872C119.615 88.296 120.212 87.4213 120.639 86.248C121.087 85.0747 121.311 83.592 121.311 81.8C121.311 79.9867 121.087 78.504 120.639 77.352C120.212 76.1787 119.615 75.3147 118.847 74.76C118.079 74.184 117.172 73.896 116.127 73.896C115.124 73.896 114.228 74.184 113.439 74.76C112.671 75.3147 112.063 76.1787 111.615 77.352C111.188 78.504 110.975 79.9867 110.975 81.8C110.975 83.592 111.188 85.0747 111.615 86.248C112.063 87.4213 112.671 88.296 113.439 88.872C114.228 89.4267 115.124 89.704 116.127 89.704Z" fill="#161616"/>
<path fill-rule="evenodd" clip-rule="evenodd" d="M301.5 37.4688C250.12 37.4688 208.469 79.1203 208.469 130.5C208.469 181.88 250.12 223.531 301.5 223.531C352.88 223.531 394.531 181.88 394.531 130.5C394.531 79.1203 352.88 37.4688 301.5 37.4688ZM280.153 106.741C280.654 102.03 282.705 97.4653 286.319 93.8505C294.703 85.4665 308.297 85.4665 316.681 93.8505C319.475 96.6452 324.006 96.6452 326.801 93.8505C329.596 91.0559 329.596 86.5248 326.801 83.7301C312.828 69.7566 290.172 69.7566 276.199 83.7301C270.187 89.7418 266.756 97.3791 265.921 105.227C265.609 108.155 265.914 110.904 266.222 113.064L267.691 123.344H265.719C261.766 123.344 258.562 126.548 258.562 130.5C258.562 134.452 261.766 137.656 265.719 137.656H269.736L271.05 146.858C272.079 154.063 270.887 161.411 267.632 167.92L266.474 170.236C265.18 172.825 265.572 175.939 267.469 178.125C269.365 180.312 272.392 181.141 275.138 180.226L289.818 175.332C292.756 174.353 295.932 174.353 298.87 175.332L305.113 177.414C312.315 179.814 320.176 179.256 326.967 175.86L333.325 172.681C336.86 170.914 338.293 166.615 336.526 163.08C334.758 159.545 330.46 158.112 326.925 159.88L320.566 163.059C317.171 164.757 313.24 165.036 309.639 163.836L303.396 161.754C297.52 159.796 291.167 159.796 285.292 161.754L284.708 161.949C285.853 156.347 286.036 150.559 285.219 144.834L284.193 137.656H301.5C305.452 137.656 308.656 134.452 308.656 130.5C308.656 126.548 305.452 123.344 301.5 123.344H282.149L280.391 111.04C280.125 109.176 280.034 107.854 280.153 106.741Z" fill="#FFF6CD"/>
</g>
<defs>
<linearGradient id="paint0_linear_408_11234" x1="139.5" y1="102" x2="-3.17791e-06" y2="4.34626e-06" gradientUnits="userSpaceOnUse">
<stop stop-color="#FFE77B"/>
<stop offset="1" stop-color="#FFF6CD"/>
</linearGradient>
<clipPath id="clip0_408_11234">
<rect width="361" height="204" rx="16" fill="white"/>
</clipPath>
</defs>
</svg>
