<svg width="361" height="204" viewBox="0 0 361 204" fill="none" xmlns="http://www.w3.org/2000/svg">
<g clip-path="url(#clip0_408_11212)">
<rect width="361" height="204" rx="16" fill="url(#paint0_linear_408_11212)"/>
<path d="M21.136 30.184H29.488V32.752H21.136V30.184ZM21.376 37.384H30.856V40H18.256V23.2H30.52V25.816H21.376V37.384ZM41.8249 40V37.408L41.6569 36.856V32.32C41.6569 31.44 41.3929 30.76 40.8649 30.28C40.3369 29.784 39.5369 29.536 38.4649 29.536C37.7449 29.536 37.0329 29.648 36.3289 29.872C35.6409 30.096 35.0569 30.408 34.5769 30.808L33.4009 28.624C34.0889 28.096 34.9049 27.704 35.8489 27.448C36.8089 27.176 37.8009 27.04 38.8249 27.04C40.6809 27.04 42.1129 27.488 43.1209 28.384C44.1449 29.264 44.6569 30.632 44.6569 32.488V40H41.8249ZM37.7929 40.168C36.8329 40.168 35.9929 40.008 35.2729 39.688C34.5529 39.352 33.9929 38.896 33.5929 38.32C33.2089 37.728 33.0169 37.064 33.0169 36.328C33.0169 35.608 33.1849 34.96 33.5209 34.384C33.8729 33.808 34.4409 33.352 35.2249 33.016C36.0089 32.68 37.0489 32.512 38.3449 32.512H42.0649V34.504H38.5609C37.5369 34.504 36.8489 34.672 36.4969 35.008C36.1449 35.328 35.9689 35.728 35.9689 36.208C35.9689 36.752 36.1849 37.184 36.6169 37.504C37.0489 37.824 37.6489 37.984 38.4169 37.984C39.1529 37.984 39.8089 37.816 40.3849 37.48C40.9769 37.144 41.4009 36.648 41.6569 35.992L42.1609 37.792C41.8729 38.544 41.3529 39.128 40.6009 39.544C39.8649 39.96 38.9289 40.168 37.7929 40.168ZM52.4671 40.168C51.3951 40.168 50.3631 40.032 49.3711 39.76C48.3951 39.472 47.6191 39.128 47.0431 38.728L48.1951 36.448C48.7711 36.816 49.4591 37.12 50.2591 37.36C51.0591 37.6 51.8591 37.72 52.6591 37.72C53.6031 37.72 54.2831 37.592 54.6991 37.336C55.1311 37.08 55.3471 36.736 55.3471 36.304C55.3471 35.952 55.2031 35.688 54.9151 35.512C54.6271 35.32 54.2511 35.176 53.7871 35.08C53.3231 34.984 52.8031 34.896 52.2271 34.816C51.6671 34.736 51.0991 34.632 50.5231 34.504C49.9631 34.36 49.4511 34.16 48.9871 33.904C48.5231 33.632 48.1471 33.272 47.8591 32.824C47.5711 32.376 47.4271 31.784 47.4271 31.048C47.4271 30.232 47.6591 29.528 48.1231 28.936C48.5871 28.328 49.2351 27.864 50.0671 27.544C50.9151 27.208 51.9151 27.04 53.0671 27.04C53.9311 27.04 54.8031 27.136 55.6831 27.328C56.5631 27.52 57.2911 27.792 57.8671 28.144L56.7151 30.424C56.1071 30.056 55.4911 29.808 54.8671 29.68C54.2591 29.536 53.6511 29.464 53.0431 29.464C52.1311 29.464 51.4511 29.6 51.0031 29.872C50.5711 30.144 50.3551 30.488 50.3551 30.904C50.3551 31.288 50.4991 31.576 50.7871 31.768C51.0751 31.96 51.4511 32.112 51.9151 32.224C52.3791 32.336 52.8911 32.432 53.4511 32.512C54.0271 32.576 54.5951 32.68 55.1551 32.824C55.7151 32.968 56.2271 33.168 56.6911 33.424C57.1711 33.664 57.5551 34.008 57.8431 34.456C58.1311 34.904 58.2751 35.488 58.2751 36.208C58.2751 37.008 58.0351 37.704 57.5551 38.296C57.0911 38.888 56.4271 39.352 55.5631 39.688C54.6991 40.008 53.6671 40.168 52.4671 40.168ZM61.6803 44.824C61.0563 44.824 60.4323 44.72 59.8083 44.512C59.1843 44.304 58.6643 44.016 58.2482 43.648L59.4482 41.44C59.7523 41.712 60.0963 41.928 60.4803 42.088C60.8643 42.248 61.2563 42.328 61.6562 42.328C62.2003 42.328 62.6403 42.192 62.9763 41.92C63.3123 41.648 63.6243 41.192 63.9123 40.552L64.6562 38.872L64.8963 38.512L69.7443 27.184H72.6243L66.6243 41.032C66.2243 41.992 65.7763 42.752 65.2803 43.312C64.8003 43.872 64.2563 44.264 63.6483 44.488C63.0563 44.712 62.4003 44.824 61.6803 44.824ZM64.3203 40.456L58.5362 27.184H61.6562L66.3603 38.248L64.3203 40.456ZM81.4201 40V23.2H83.9881L91.3321 35.464H89.9881L97.2121 23.2H99.7801L99.8041 40H96.8521L96.8281 27.832H97.4521L91.3081 38.08H89.9161L83.6761 27.832H84.3961V40H81.4201ZM109.814 40.168C108.502 40.168 107.334 39.888 106.31 39.328C105.286 38.752 104.478 37.968 103.886 36.976C103.294 35.984 102.998 34.856 102.998 33.592C102.998 32.312 103.294 31.184 103.886 30.208C104.478 29.216 105.286 28.44 106.31 27.88C107.334 27.32 108.502 27.04 109.814 27.04C111.142 27.04 112.318 27.32 113.342 27.88C114.382 28.44 115.19 29.208 115.766 30.184C116.358 31.16 116.654 32.296 116.654 33.592C116.654 34.856 116.358 35.984 115.766 36.976C115.19 37.968 114.382 38.752 113.342 39.328C112.318 39.888 111.142 40.168 109.814 40.168ZM109.814 37.6C110.55 37.6 111.206 37.44 111.782 37.12C112.358 36.8 112.806 36.336 113.126 35.728C113.462 35.12 113.63 34.408 113.63 33.592C113.63 32.76 113.462 32.048 113.126 31.456C112.806 30.848 112.358 30.384 111.782 30.064C111.206 29.744 110.558 29.584 109.838 29.584C109.102 29.584 108.446 29.744 107.87 30.064C107.31 30.384 106.862 30.848 106.526 31.456C106.19 32.048 106.022 32.76 106.022 33.592C106.022 34.408 106.19 35.12 106.526 35.728C106.862 36.336 107.31 36.8 107.87 37.12C108.446 37.44 109.094 37.6 109.814 37.6ZM126.795 27.04C127.819 27.04 128.731 27.24 129.531 27.64C130.347 28.04 130.987 28.656 131.451 29.488C131.915 30.304 132.147 31.36 132.147 32.656V40H129.147V33.04C129.147 31.904 128.875 31.056 128.331 30.496C127.803 29.936 127.059 29.656 126.099 29.656C125.395 29.656 124.771 29.8 124.227 30.088C123.683 30.376 123.259 30.808 122.955 31.384C122.667 31.944 122.523 32.656 122.523 33.52V40H119.523V27.184H122.379V30.64L121.875 29.584C122.323 28.768 122.971 28.144 123.819 27.712C124.683 27.264 125.675 27.04 126.795 27.04ZM142 40.168C140.576 40.168 139.328 39.888 138.256 39.328C137.2 38.752 136.376 37.968 135.784 36.976C135.208 35.984 134.92 34.856 134.92 33.592C134.92 32.312 135.2 31.184 135.76 30.208C136.336 29.216 137.12 28.44 138.112 27.88C139.12 27.32 140.264 27.04 141.544 27.04C142.792 27.04 143.904 27.312 144.88 27.856C145.856 28.4 146.624 29.168 147.184 30.16C147.744 31.152 148.024 32.32 148.024 33.664C148.024 33.792 148.016 33.936 148 34.096C148 34.256 147.992 34.408 147.976 34.552H137.296V32.56H146.392L145.216 33.184C145.232 32.448 145.08 31.8 144.76 31.24C144.44 30.68 144 30.24 143.44 29.92C142.896 29.6 142.264 29.44 141.544 29.44C140.808 29.44 140.16 29.6 139.6 29.92C139.056 30.24 138.624 30.688 138.304 31.264C138 31.824 137.848 32.488 137.848 33.256V33.736C137.848 34.504 138.024 35.184 138.376 35.776C138.728 36.368 139.224 36.824 139.864 37.144C140.504 37.464 141.24 37.624 142.072 37.624C142.792 37.624 143.44 37.512 144.016 37.288C144.592 37.064 145.104 36.712 145.552 36.232L147.16 38.08C146.584 38.752 145.856 39.272 144.976 39.64C144.112 39.992 143.12 40.168 142 40.168ZM151.727 44.824C151.103 44.824 150.479 44.72 149.855 44.512C149.231 44.304 148.711 44.016 148.295 43.648L149.495 41.44C149.799 41.712 150.143 41.928 150.527 42.088C150.911 42.248 151.303 42.328 151.703 42.328C152.247 42.328 152.687 42.192 153.023 41.92C153.359 41.648 153.671 41.192 153.959 40.552L154.703 38.872L154.943 38.512L159.791 27.184H162.671L156.671 41.032C156.271 41.992 155.823 42.752 155.327 43.312C154.847 43.872 154.303 44.264 153.695 44.488C153.103 44.712 152.447 44.824 151.727 44.824ZM154.367 40.456L148.583 27.184H151.703L156.407 38.248L154.367 40.456Z" fill="#161616"/>
<path d="M20.32 92.488V79.016C20.32 77.2453 20.704 75.7093 21.472 74.408C22.2613 73.0853 23.392 72.072 24.864 71.368C26.3573 70.6427 28.16 70.28 30.272 70.28C31.5733 70.28 32.736 70.408 33.76 70.664C34.784 70.8987 35.7227 71.272 36.576 71.784L35.264 75.176C34.56 74.7067 33.76 74.3867 32.864 74.216C31.9893 74.024 31.0507 73.928 30.048 73.928C28.2133 73.928 26.8267 74.3547 25.888 75.208C24.9493 76.0613 24.48 77.32 24.48 78.984V92.488H20.32ZM16.96 93V89.512H36.032V93H16.96ZM16.96 83.112V80.488H32.576V83.112H16.96ZM46.6583 93.32C44.8876 93.32 43.2876 92.872 41.8583 91.976C40.4503 91.08 39.3409 89.7787 38.5303 88.072C37.7196 86.344 37.3143 84.2533 37.3143 81.8C37.3143 79.3467 37.7196 77.2667 38.5303 75.56C39.3409 73.832 40.4503 72.52 41.8583 71.624C43.2876 70.728 44.8876 70.28 46.6583 70.28C48.4503 70.28 50.0503 70.728 51.4583 71.624C52.8663 72.52 53.9756 73.832 54.7863 75.56C55.6183 77.2667 56.0343 79.3467 56.0343 81.8C56.0343 84.2533 55.6183 86.344 54.7863 88.072C53.9756 89.7787 52.8663 91.08 51.4583 91.976C50.0503 92.872 48.4503 93.32 46.6583 93.32ZM46.6583 89.704C47.7036 89.704 48.6103 89.4267 49.3783 88.872C50.1463 88.296 50.7436 87.4213 51.1703 86.248C51.6183 85.0747 51.8423 83.592 51.8423 81.8C51.8423 79.9867 51.6183 78.504 51.1703 77.352C50.7436 76.1787 50.1463 75.3147 49.3783 74.76C48.6103 74.184 47.7036 73.896 46.6583 73.896C45.6556 73.896 44.7596 74.184 43.9703 74.76C43.2023 75.3147 42.5943 76.1787 42.1463 77.352C41.7196 78.504 41.5063 79.9867 41.5063 81.8C41.5063 83.592 41.7196 85.0747 42.1463 86.248C42.5943 87.4213 43.2023 88.296 43.9703 88.872C44.7596 89.4267 45.6556 89.704 46.6583 89.704ZM60.9665 93.224C60.2412 93.224 59.6225 92.9787 59.1105 92.488C58.5985 91.976 58.3425 91.336 58.3425 90.568C58.3425 89.7573 58.5985 89.1173 59.1105 88.648C59.6225 88.1573 60.2412 87.912 60.9665 87.912C61.6918 87.912 62.3105 88.1573 62.8225 88.648C63.3345 89.1173 63.5905 89.7573 63.5905 90.568C63.5905 91.336 63.3345 91.976 62.8225 92.488C62.3105 92.9787 61.6918 93.224 60.9665 93.224ZM75.252 93.32C73.4813 93.32 71.8813 92.872 70.452 91.976C69.044 91.08 67.9347 89.7787 67.124 88.072C66.3133 86.344 65.908 84.2533 65.908 81.8C65.908 79.3467 66.3133 77.2667 67.124 75.56C67.9347 73.832 69.044 72.52 70.452 71.624C71.8813 70.728 73.4813 70.28 75.252 70.28C77.044 70.28 78.644 70.728 80.052 71.624C81.46 72.52 82.5693 73.832 83.38 75.56C84.212 77.2667 84.628 79.3467 84.628 81.8C84.628 84.2533 84.212 86.344 83.38 88.072C82.5693 89.7787 81.46 91.08 80.052 91.976C78.644 92.872 77.044 93.32 75.252 93.32ZM75.252 89.704C76.2973 89.704 77.204 89.4267 77.972 88.872C78.74 88.296 79.3373 87.4213 79.764 86.248C80.212 85.0747 80.436 83.592 80.436 81.8C80.436 79.9867 80.212 78.504 79.764 77.352C79.3373 76.1787 78.74 75.3147 77.972 74.76C77.204 74.184 76.2973 73.896 75.252 73.896C74.2493 73.896 73.3533 74.184 72.564 74.76C71.796 75.3147 71.188 76.1787 70.74 77.352C70.3133 78.504 70.1 79.9867 70.1 81.8C70.1 83.592 70.3133 85.0747 70.74 86.248C71.188 87.4213 71.796 88.296 72.564 88.872C73.3533 89.4267 74.2493 89.704 75.252 89.704ZM96.7833 93.32C95.0126 93.32 93.4126 92.872 91.9833 91.976C90.5753 91.08 89.4659 89.7787 88.6553 88.072C87.8446 86.344 87.4393 84.2533 87.4393 81.8C87.4393 79.3467 87.8446 77.2667 88.6553 75.56C89.4659 73.832 90.5753 72.52 91.9833 71.624C93.4126 70.728 95.0126 70.28 96.7833 70.28C98.5753 70.28 100.175 70.728 101.583 71.624C102.991 72.52 104.101 73.832 104.911 75.56C105.743 77.2667 106.159 79.3467 106.159 81.8C106.159 84.2533 105.743 86.344 104.911 88.072C104.101 89.7787 102.991 91.08 101.583 91.976C100.175 92.872 98.5753 93.32 96.7833 93.32ZM96.7833 89.704C97.8286 89.704 98.7353 89.4267 99.5033 88.872C100.271 88.296 100.869 87.4213 101.295 86.248C101.743 85.0747 101.967 83.592 101.967 81.8C101.967 79.9867 101.743 78.504 101.295 77.352C100.869 76.1787 100.271 75.3147 99.5033 74.76C98.7353 74.184 97.8286 73.896 96.7833 73.896C95.7806 73.896 94.8846 74.184 94.0953 74.76C93.3273 75.3147 92.7193 76.1787 92.2713 77.352C91.8446 78.504 91.6313 79.9867 91.6313 81.8C91.6313 83.592 91.8446 85.0747 92.2713 86.248C92.7193 87.4213 93.3273 88.296 94.0953 88.872C94.8846 89.4267 95.7806 89.704 96.7833 89.704Z" fill="#161616"/>
<path fill-rule="evenodd" clip-rule="evenodd" d="M301.5 37.4688C250.12 37.4688 208.469 79.1203 208.469 130.5C208.469 181.88 250.12 223.531 301.5 223.531C352.88 223.531 394.531 181.88 394.531 130.5C394.531 79.1203 352.88 37.4688 301.5 37.4688ZM280.153 106.741C280.654 102.03 282.705 97.4653 286.319 93.8505C294.703 85.4665 308.297 85.4665 316.681 93.8505C319.475 96.6452 324.006 96.6452 326.801 93.8505C329.596 91.0559 329.596 86.5248 326.801 83.7301C312.828 69.7566 290.172 69.7566 276.199 83.7301C270.187 89.7418 266.756 97.3791 265.921 105.227C265.609 108.155 265.914 110.904 266.222 113.064L267.691 123.344H265.719C261.766 123.344 258.562 126.548 258.562 130.5C258.562 134.452 261.766 137.656 265.719 137.656H269.736L271.05 146.858C272.079 154.063 270.887 161.411 267.632 167.92L266.474 170.236C265.18 172.825 265.572 175.939 267.469 178.125C269.365 180.312 272.392 181.141 275.138 180.226L289.818 175.332C292.756 174.353 295.932 174.353 298.87 175.332L305.113 177.414C312.315 179.814 320.176 179.256 326.967 175.86L333.325 172.681C336.86 170.914 338.293 166.615 336.526 163.08C334.758 159.545 330.46 158.112 326.925 159.88L320.566 163.059C317.171 164.757 313.24 165.036 309.639 163.836L303.396 161.754C297.52 159.796 291.167 159.796 285.292 161.754L284.708 161.949C285.853 156.347 286.036 150.559 285.219 144.834L284.193 137.656H301.5C305.452 137.656 308.656 134.452 308.656 130.5C308.656 126.548 305.452 123.344 301.5 123.344H282.149L280.391 111.04C280.125 109.176 280.034 107.854 280.153 106.741Z" fill="#FFF6CD"/>
</g>
<defs>
<linearGradient id="paint0_linear_408_11212" x1="139.5" y1="102" x2="-3.17791e-06" y2="4.34626e-06" gradientUnits="userSpaceOnUse">
<stop stop-color="#FFE77B"/>
<stop offset="1" stop-color="#FFF6CD"/>
</linearGradient>
<clipPath id="clip0_408_11212">
<rect width="361" height="204" rx="16" fill="white"/>
</clipPath>
</defs>
</svg>
