<svg width="361" height="204" viewBox="0 0 361 204" fill="none" xmlns="http://www.w3.org/2000/svg">
<g clip-path="url(#clip0_408_11228)">
<rect width="361" height="204" rx="16" fill="url(#paint0_linear_408_11228)"/>
<path fill-rule="evenodd" clip-rule="evenodd" d="M301.5 37.4688C250.12 37.4688 208.469 79.1203 208.469 130.5C208.469 181.88 250.12 223.531 301.5 223.531C352.88 223.531 394.531 181.88 394.531 130.5C394.531 79.1203 352.88 37.4688 301.5 37.4688ZM280.153 106.741C280.654 102.03 282.705 97.4653 286.319 93.8505C294.703 85.4665 308.297 85.4665 316.681 93.8505C319.475 96.6452 324.006 96.6452 326.801 93.8505C329.596 91.0559 329.596 86.5248 326.801 83.7301C312.828 69.7566 290.172 69.7566 276.199 83.7301C270.187 89.7418 266.756 97.3791 265.921 105.227C265.609 108.155 265.914 110.904 266.222 113.064L267.691 123.344H265.719C261.766 123.344 258.562 126.548 258.562 130.5C258.562 134.452 261.766 137.656 265.719 137.656H269.736L271.05 146.858C272.079 154.063 270.887 161.411 267.632 167.92L266.474 170.236C265.18 172.825 265.572 175.939 267.469 178.125C269.365 180.312 272.392 181.141 275.138 180.226L289.818 175.332C292.756 174.353 295.932 174.353 298.87 175.332L305.113 177.414C312.315 179.814 320.176 179.256 326.967 175.86L333.325 172.681C336.86 170.914 338.293 166.615 336.526 163.08C334.758 159.545 330.46 158.112 326.925 159.88L320.566 163.059C317.171 164.757 313.24 165.036 309.639 163.836L303.396 161.754C297.52 159.796 291.167 159.796 285.292 161.754L284.708 161.949C285.853 156.347 286.036 150.559 285.219 144.834L284.193 137.656H301.5C305.452 137.656 308.656 134.452 308.656 130.5C308.656 126.548 305.452 123.344 301.5 123.344H282.149L280.391 111.04C280.125 109.176 280.034 107.854 280.153 106.741Z" fill="#FFF6CD"/>
</g>
<defs>
<linearGradient id="paint0_linear_408_11228" x1="139.5" y1="102" x2="-3.17791e-06" y2="4.34626e-06" gradientUnits="userSpaceOnUse">
<stop stop-color="#FFE77B"/>
<stop offset="1" stop-color="#FFF6CD"/>
</linearGradient>
<clipPath id="clip0_408_11228">
<rect width="361" height="204" rx="16" fill="white"/>
</clipPath>
</defs>
</svg>
