<svg width="56" height="56" viewBox="0 0 56 56" fill="none" xmlns="http://www.w3.org/2000/svg">
<path d="M13.831 22.052C16.272 21.9833 18.6729 22.6826 20.6953 24.0513C21.5838 22.4372 22.9824 21.1632 24.6721 20.4287C26.3618 19.6942 28.2474 19.5406 30.0337 19.992C31.82 20.4433 33.4063 21.4741 34.5444 22.9231C35.6824 24.3721 36.308 26.1575 36.3232 27.9999C36.3232 29.0662 38.5891 30.6156 42.1545 30.6156C45.7199 30.6156 47.9858 29.0662 47.9858 27.9999C47.9875 23.1325 46.2134 18.4317 42.9964 14.779C39.7794 11.1263 35.3404 8.77267 30.5119 8.15939C25.6833 7.5461 20.7968 8.71534 16.7688 11.4478C12.7408 14.1803 9.848 18.2884 8.63281 23.0016C10.2815 22.3301 12.0513 22.0068 13.831 22.052Z" fill="#866539"/>
<path d="M42.1548 33.5637C39.7138 33.6323 37.3129 32.933 35.2905 31.5644C34.402 33.1784 33.0034 34.4524 31.3137 35.1869C29.624 35.9214 27.7384 36.075 25.9521 35.6237C24.1658 35.1723 22.5795 34.1415 21.4414 32.6925C20.3034 31.2435 19.6778 29.4582 19.6626 27.6158C19.6626 26.5495 17.3967 25 13.8313 25C10.2659 25 8 26.5495 8 27.6158C7.99835 32.4831 9.77237 37.1839 12.9894 40.8366C16.2064 44.4893 20.6454 46.843 25.474 47.4563C30.3025 48.0695 35.189 46.9003 39.217 44.1678C43.245 41.4353 46.1378 37.3273 47.353 32.614C45.7043 33.2855 43.9345 33.6089 42.1548 33.5637Z" fill="#FFC148"/>
<path d="M24.6603 14.6701H22.9942C22.5523 14.6701 22.1286 14.4945 21.8161 14.1821C21.5037 13.8696 21.3281 13.4459 21.3281 13.004C21.3281 12.5621 21.5037 12.1383 21.8161 11.8259C22.1286 11.5134 22.5523 11.3379 22.9942 11.3379H24.6603C25.1022 11.3379 25.526 11.5134 25.8384 11.8259C26.1509 12.1383 26.3264 12.5621 26.3264 13.004C26.3264 13.4459 26.1509 13.8696 25.8384 14.1821C25.526 14.4945 25.1022 14.6701 24.6603 14.6701Z" fill="#D91FD2"/>
<path d="M31.325 16.3362C30.8831 16.3362 30.4594 16.1606 30.1469 15.8482C29.8345 15.5357 29.6589 15.1119 29.6589 14.6701V13.004C29.6589 12.5621 29.8345 12.1383 30.1469 11.8259C30.4594 11.5134 30.8831 11.3379 31.325 11.3379C31.7669 11.3379 32.1907 11.5134 32.5031 11.8259C32.8156 12.1383 32.9911 12.5621 32.9911 13.004V14.6701C32.9911 15.1119 32.8156 15.5357 32.5031 15.8482C32.1907 16.1606 31.7669 16.3362 31.325 16.3362Z" fill="white"/>
<path d="M36.3226 19.6692C35.8807 19.6692 35.4569 19.4936 35.1445 19.1812C34.832 18.8687 34.6565 18.4449 34.6565 18.0031V16.337C34.6565 15.8951 34.832 15.4713 35.1445 15.1589C35.4569 14.8464 35.8807 14.6709 36.3226 14.6709C36.7645 14.6709 37.1882 14.8464 37.5007 15.1589C37.8131 15.4713 37.9887 15.8951 37.9887 16.337V18.0031C37.9887 18.4449 37.8131 18.8687 37.5007 19.1812C37.1882 19.4936 36.7645 19.6692 36.3226 19.6692Z" fill="#FFC148"/>
<path d="M41.3212 24.6681H39.6551C39.2132 24.6681 38.7895 24.4926 38.477 24.1801C38.1645 23.8677 37.989 23.4439 37.989 23.002C37.989 22.5602 38.1645 22.1364 38.477 21.8239C38.7895 21.5115 39.2132 21.3359 39.6551 21.3359H41.3212C41.7631 21.3359 42.1868 21.5115 42.4993 21.8239C42.8117 22.1364 42.9873 22.5602 42.9873 23.002C42.9873 23.4439 42.8117 23.8677 42.4993 24.1801C42.1868 24.4926 41.7631 24.6681 41.3212 24.6681Z" fill="#D91FD2"/>
<path d="M17.9962 19.6692C17.5543 19.6692 17.1305 19.4936 16.8181 19.1812C16.5056 18.8687 16.3301 18.4449 16.3301 18.0031V16.337C16.3301 15.8951 16.5056 15.4713 16.8181 15.1589C17.1305 14.8464 17.5543 14.6709 17.9962 14.6709C18.438 14.6709 18.8618 14.8464 19.1743 15.1589C19.4867 15.4713 19.6623 15.8951 19.6623 16.337V18.0031C19.6623 18.4449 19.4867 18.8687 19.1743 19.1812C18.8618 19.4936 18.438 19.6692 17.9962 19.6692Z" fill="#FFC148"/>
</svg>
