<svg width="91" height="20" viewBox="0 0 91 20" fill="none" xmlns="http://www.w3.org/2000/svg">
<path d="M4.5215 10.7212L4.50763 8.50208C4.50763 8.09986 4.7018 7.97503 4.93759 7.97503C5.38141 7.97503 5.96394 8.54369 6.69903 8.54369C7.76699 8.54369 8.48821 7.93343 8.48821 7.0319C8.48821 6.22746 7.91956 5.45076 6.74064 5.45076C5.67268 5.45076 4.89598 5.96394 4.50763 6.38003L4.57698 3.24549H9.37587V0.346741H0C0 0.346741 0.138696 5.0208 0.138696 7.14286C0.138696 10.0693 0.0554785 13.8558 0.0554785 13.8558H9.76422C9.79196 12.4411 10.0832 10.527 10.0832 10.527L4.5215 10.7212ZM18.1415 13.8558H22.3162C22.3162 13.8558 21.9417 9.02913 21.9417 6.90707C21.9417 4.46602 20.4022 2.98197 16.8793 2.98197C13.3426 2.98197 11.165 4.71567 11.165 4.71567L11.9972 7.44799C11.9972 7.44799 14.4521 5.7975 16.3107 5.7975C17.1983 5.7975 17.767 6.18585 17.767 6.86546C17.767 8.30791 10.957 7.3509 10.957 11.4563C10.957 13.2732 12.3717 14.2164 14.1748 14.2164C16.8793 14.2164 17.6144 12.8571 18.0999 11.7614L18.1415 13.8558ZM16.3107 11.706C15.8807 11.706 15.5895 11.4702 15.5895 10.846C15.5895 9.55617 17.1706 9.16782 17.975 8.55756C17.8225 10.1664 17.2816 11.706 16.3107 11.706ZM33.0097 4.14702C33.0097 4.14702 31.4008 2.98197 28.7933 2.98197C26.3245 2.98197 24.1331 4.14702 24.1331 6.46325C24.1331 9.95839 28.9182 9.66713 28.9182 11.0125C28.9182 11.3176 28.6963 11.5673 28.2663 11.5673C26.7129 11.5673 24.466 10.0416 24.466 10.0416L23.4119 12.3856C23.4119 12.3856 25.2288 14.2164 28.8766 14.2164C31.595 14.2164 33.3981 12.7323 33.3981 10.638C33.3981 7.08738 28.294 7.42025 28.294 6.21359C28.294 5.88072 28.5021 5.57559 28.9736 5.57559C30.1942 5.57559 32.1914 6.5742 32.1914 6.5742L33.0097 4.14702ZM41.9417 3.34258C42.233 6.96255 41.8863 8.9043 41.276 10.5409C41.276 4.09154 34.466 2.98197 34.466 2.98197L33.4951 7.58668C33.4951 7.58668 37.7809 8.41886 37.7809 12.1498C37.7809 15.742 34.6186 17.2538 29.9029 17.2538L30.8877 20C39.043 20 45.2566 12.9542 45.2566 3.34258H41.9417ZM51.3454 10.7212L51.3176 8.50208C51.3176 8.09986 51.5118 7.97503 51.7476 7.97503C52.1914 7.97503 52.7739 8.54369 53.509 8.54369C54.577 8.54369 55.2982 7.93343 55.2982 7.0319C55.2982 6.22746 54.7434 5.45076 53.5506 5.45076C52.4827 5.45076 51.706 5.96394 51.3176 6.38003L51.4008 3.24549H56.1997V0.346741H46.81C46.81 0.346741 46.9487 5.0208 46.9487 7.14286C46.9487 10.0693 46.8793 13.8558 46.8793 13.8558H56.5881C56.6019 12.4411 56.8932 10.527 56.8932 10.527L51.3454 10.7212ZM64.9515 13.8558H69.1262C69.1262 13.8558 68.7517 9.02913 68.7517 6.90707C68.7517 4.46602 67.2261 2.98197 63.6893 2.98197C60.1526 2.98197 57.975 4.71567 57.975 4.71567L58.8211 7.44799C58.8211 7.44799 61.2621 5.7975 63.1207 5.7975C64.0222 5.7975 64.577 6.18585 64.577 6.86546C64.577 8.30791 57.767 7.3509 57.767 11.4563C57.767 13.2732 59.1817 14.2164 60.9847 14.2164C63.6893 14.2164 64.4244 12.8571 64.9098 11.7614L64.9515 13.8558ZM63.1207 11.706C62.7046 11.706 62.4133 11.4702 62.4133 10.846C62.4133 9.55617 63.9806 9.16782 64.7989 8.55756C64.6463 10.1664 64.0915 11.706 63.1207 11.706ZM79.9584 13.2594L79.0846 10.7767C78.724 10.9709 78.1415 11.3592 77.2816 11.3592C76.2968 11.3592 76.2136 10.846 76.2136 9.8613C76.2136 9.65326 76.2275 7.53121 76.2691 6.21359C77.8225 6.22746 79.2233 6.22746 79.2233 6.22746L79.4313 3.34258H76.3523L76.3245 0H74.9376L70.2913 4.89598L70.2358 6.31068C70.2358 6.31068 70.7628 6.31068 71.7614 6.28294C71.7476 6.93481 71.7337 8.94591 71.7337 10.0555C71.7337 12.982 73.7725 14.2164 76.3245 14.2164C78.0028 14.2164 79.2094 13.7864 79.9584 13.2594ZM89.9445 4.14702C89.9445 4.14702 88.3356 2.98197 85.7282 2.98197C83.2594 2.98197 81.068 4.14702 81.068 6.46325C81.068 9.95839 85.8391 9.66713 85.8391 11.0125C85.8391 11.3176 85.6311 11.5673 85.2011 11.5673C83.6477 11.5673 81.4008 10.0416 81.4008 10.0416L80.3467 12.3856C80.3467 12.3856 82.1498 14.2164 85.8114 14.2164C88.5298 14.2164 90.3329 12.7323 90.3329 10.638C90.3329 7.08738 85.2288 7.42025 85.2288 6.21359C85.2288 5.88072 85.4369 5.57559 85.9085 5.57559C87.129 5.57559 89.1262 6.5742 89.1262 6.5742L89.9445 4.14702Z" fill="#161616"/>
</svg>
