<svg width="89" height="30" viewBox="0 0 89 30" fill="none" xmlns="http://www.w3.org/2000/svg">
<rect width="88.2663" height="30" rx="6" fill="#FFEC95"/>
<path d="M11.6172 16.577L11.6061 14.8017C11.6061 14.4799 11.7614 14.38 11.9501 14.38C12.3051 14.38 12.7712 14.835 13.3592 14.835C14.2136 14.835 14.7906 14.3467 14.7906 13.6255C14.7906 12.982 14.3356 12.3606 13.3925 12.3606C12.5381 12.3606 11.9168 12.7712 11.6061 13.104L11.6616 10.5964H15.5007V8.27739H8C8 8.27739 8.11096 12.0166 8.11096 13.7143C8.11096 16.0555 8.04438 19.0846 8.04438 19.0846H15.8114C15.8336 17.9528 16.0666 16.4216 16.0666 16.4216L11.6172 16.577ZM22.5132 19.0846H25.853C25.853 19.0846 25.5534 15.2233 25.5534 13.5257C25.5534 11.5728 24.3218 10.3856 21.5035 10.3856C18.6741 10.3856 16.932 11.7725 16.932 11.7725L17.5978 13.9584C17.5978 13.9584 19.5617 12.638 21.0485 12.638C21.7587 12.638 22.2136 12.9487 22.2136 13.4924C22.2136 14.6463 16.7656 13.8807 16.7656 17.165C16.7656 18.6186 17.8974 19.3731 19.3398 19.3731C21.5035 19.3731 22.0915 18.2857 22.4799 17.4092L22.5132 19.0846ZM21.0485 17.3648C20.7046 17.3648 20.4716 17.1761 20.4716 16.6768C20.4716 15.6449 21.7365 15.3343 22.38 14.846C22.258 16.1331 21.8252 17.3648 21.0485 17.3648ZM34.4078 11.3176C34.4078 11.3176 33.1207 10.3856 31.0347 10.3856C29.0596 10.3856 27.3065 11.3176 27.3065 13.1706C27.3065 15.9667 31.1345 15.7337 31.1345 16.81C31.1345 17.0541 30.957 17.2538 30.613 17.2538C29.3703 17.2538 27.5728 16.0333 27.5728 16.0333L26.7295 17.9085C26.7295 17.9085 28.1831 19.3731 31.1012 19.3731C33.276 19.3731 34.7184 18.1859 34.7184 16.5104C34.7184 13.6699 30.6352 13.9362 30.6352 12.9709C30.6352 12.7046 30.8017 12.4605 31.1789 12.4605C32.1553 12.4605 33.7531 13.2594 33.7531 13.2594L34.4078 11.3176ZM41.5534 10.6741C41.7864 13.57 41.509 15.1234 41.0208 16.4327C41.0208 11.2732 35.5728 10.3856 35.5728 10.3856L34.7961 14.0693C34.7961 14.0693 38.2247 14.7351 38.2247 17.7198C38.2247 20.5936 35.6949 21.8031 31.9223 21.8031L32.7101 24C39.2344 24 44.2053 18.3634 44.2053 10.6741H41.5534ZM49.0763 16.577L49.0541 14.8017C49.0541 14.4799 49.2094 14.38 49.3981 14.38C49.7531 14.38 50.2191 14.835 50.8072 14.835C51.6616 14.835 52.2386 14.3467 52.2386 13.6255C52.2386 12.982 51.7947 12.3606 50.8405 12.3606C49.9861 12.3606 49.3648 12.7712 49.0541 13.104L49.1207 10.5964H52.9598V8.27739H45.448C45.448 8.27739 45.5589 12.0166 45.5589 13.7143C45.5589 16.0555 45.5035 19.0846 45.5035 19.0846H53.2705C53.2816 17.9528 53.5146 16.4216 53.5146 16.4216L49.0763 16.577ZM59.9612 19.0846H63.301C63.301 19.0846 63.0014 15.2233 63.0014 13.5257C63.0014 11.5728 61.7809 10.3856 58.9515 10.3856C56.1221 10.3856 54.38 11.7725 54.38 11.7725L55.0569 13.9584C55.0569 13.9584 57.0097 12.638 58.4965 12.638C59.2178 12.638 59.6616 12.9487 59.6616 13.4924C59.6616 14.6463 54.2136 13.8807 54.2136 17.165C54.2136 18.6186 55.3454 19.3731 56.7878 19.3731C58.9515 19.3731 59.5395 18.2857 59.9279 17.4092L59.9612 19.0846ZM58.4965 17.3648C58.1637 17.3648 57.9307 17.1761 57.9307 16.6768C57.9307 15.6449 59.1845 15.3343 59.8391 14.846C59.7171 16.1331 59.2732 17.3648 58.4965 17.3648ZM71.9667 18.6075L71.2677 16.6214C70.9792 16.7767 70.5132 17.0874 69.8252 17.0874C69.0374 17.0874 68.9709 16.6768 68.9709 15.889C68.9709 15.7226 68.982 14.025 69.0153 12.9709C70.258 12.982 71.3786 12.982 71.3786 12.982L71.5451 10.6741H69.0818L69.0596 8H67.9501L64.233 11.9168L64.1886 13.0485C64.1886 13.0485 64.6103 13.0485 65.4092 13.0264C65.3981 13.5478 65.387 15.1567 65.387 16.0444C65.387 18.3856 67.018 19.3731 69.0596 19.3731C70.4022 19.3731 71.3675 19.0291 71.9667 18.6075ZM79.9556 11.3176C79.9556 11.3176 78.6685 10.3856 76.5825 10.3856C74.6075 10.3856 72.8544 11.3176 72.8544 13.1706C72.8544 15.9667 76.6713 15.7337 76.6713 16.81C76.6713 17.0541 76.5049 17.2538 76.1609 17.2538C74.9182 17.2538 73.1207 16.0333 73.1207 16.0333L72.2774 17.9085C72.2774 17.9085 73.7198 19.3731 76.6491 19.3731C78.8239 19.3731 80.2663 18.1859 80.2663 16.5104C80.2663 13.6699 76.1831 13.9362 76.1831 12.9709C76.1831 12.7046 76.3495 12.4605 76.7268 12.4605C77.7032 12.4605 79.301 13.2594 79.301 13.2594L79.9556 11.3176Z" fill="#161616"/>
</svg>
