<svg width="177" height="320" viewBox="0 0 177 320" fill="none" xmlns="http://www.w3.org/2000/svg">
<path fill-rule="evenodd" clip-rule="evenodd" d="M176.375 265.179L83.8311 319.999L31.3247 288.099L123.793 236.544L176.375 265.179Z" fill="#B19C85"/>
<path fill-rule="evenodd" clip-rule="evenodd" d="M118.816 92.7051L37.981 140.592V286.093L118.816 238.206V92.7051Z" fill="#CEAE8A"/>
<path fill-rule="evenodd" clip-rule="evenodd" d="M118.59 92.5293L164.478 120.372V265.871L118.59 238.029V92.5293Z" fill="#B49067"/>
<path fill-rule="evenodd" clip-rule="evenodd" d="M87.9447 86.709L66.1296 99.4122L61.1157 108.941L61.1894 127.413L63.0229 126.335L62.9602 111.975L64.0621 107.82L88.3243 94.1054V111.131L92.8775 108.445V95.7638L87.9447 86.709Z" fill="#B49067"/>
<path fill-rule="evenodd" clip-rule="evenodd" d="M87.7566 86.6035L66.1294 99.4118L67.7564 100.604L89.6361 87.6464L87.7566 86.6035Z" fill="#F4E3CF"/>
<path fill-rule="evenodd" clip-rule="evenodd" d="M89.6355 87.6455L67.7558 100.603L62.8931 109.96V126.741L67.9106 123.787V107.478L89.5949 94.6052V111.276L94.1481 108.648V92.1821L89.6355 87.6455Z" fill="#CEAE8A"/>
<path fill-rule="evenodd" clip-rule="evenodd" d="M132.479 114.996L110.664 127.699L105.65 137.228L105.724 155.7L107.555 154.624L107.496 140.264L108.594 136.109L132.86 122.394V139.42L137.414 136.736V124.053L132.479 114.996Z" fill="#B49067"/>
<path fill-rule="evenodd" clip-rule="evenodd" d="M132.293 114.891L110.664 127.699L112.291 128.893L134.17 115.934L132.293 114.891Z" fill="#F4E3CF"/>
<path fill-rule="evenodd" clip-rule="evenodd" d="M134.17 115.934L112.29 128.893L107.427 138.25V155.031L112.445 152.075V135.766L134.127 122.895V139.566L138.682 136.936V120.472L134.17 115.934Z" fill="#D5B795"/>
<path fill-rule="evenodd" clip-rule="evenodd" d="M164.681 120.569L83.8423 168.456V313.954L164.681 266.071V120.569Z" fill="#D5B795"/>
<path fill-rule="evenodd" clip-rule="evenodd" d="M83.8716 205.681L164.653 157.977V182.799L83.8716 230.505V205.681Z" fill="#FFE77B"/>
<path fill-rule="evenodd" clip-rule="evenodd" d="M152.407 173.386L153.094 175.82L155.34 174.464L153.519 177.311L154.218 179.737L152.407 179.065L150.592 181.919L151.288 178.654L149.471 177.991L151.716 176.647L152.407 173.386Z" fill="#161616"/>
<path fill-rule="evenodd" clip-rule="evenodd" d="M126.498 188.332L127.186 190.766L129.432 189.41L127.611 192.257L128.31 194.684L126.498 194.011L124.683 196.865L125.38 193.6L123.563 192.937L125.807 191.594L126.498 188.332Z" fill="#161616"/>
<path fill-rule="evenodd" clip-rule="evenodd" d="M96.6449 205.58L97.3341 208.016L99.5784 206.662L97.7597 209.51L98.4581 211.939L96.6449 211.263L94.8299 214.117L95.5283 210.852L93.7114 210.189L95.9558 208.847L96.6449 205.58Z" fill="#161616"/>
<path fill-rule="evenodd" clip-rule="evenodd" d="M37.9556 140.613L83.8431 168.456V313.953L37.9556 286.113V140.613Z" fill="#B49067"/>
<path fill-rule="evenodd" clip-rule="evenodd" d="M40.1548 284.803L81.3804 309.77L77.6159 295.299L47.085 277.258L40.1548 284.803Z" fill="#CEAE8A"/>
<path d="M147.288 94.01L159.725 35.4793C159.844 34.9189 160.408 34.5729 160.962 34.7212L165.091 35.8278C165.645 35.976 165.961 36.558 165.784 37.1028L147.288 94.01Z" fill="#E2E1E1"/>
<path d="M94.8029 81.0326L85.6279 21.9029C85.54 21.3368 85.9448 20.8127 86.5147 20.7547L90.7681 20.3215C91.3381 20.2634 91.8402 20.6951 91.8683 21.2673L94.8029 81.0326Z" fill="#E2E1E1"/>
<path d="M43.7298 112.596L11.1361 62.4143C10.8241 61.9339 10.9786 61.29 11.4748 61.0036L15.1774 58.8659C15.6735 58.5794 16.3084 58.7675 16.5684 59.278L43.7298 112.596Z" fill="#E2E1E1"/>
</svg>
