<svg width="223" height="260" viewBox="0 0 223 260" fill="none" xmlns="http://www.w3.org/2000/svg">
<path fill-rule="evenodd" clip-rule="evenodd" d="M178.962 178.478L86.4689 233.268L33.9912 201.386L126.409 149.858L178.962 178.478Z" fill="#B19C85"/>
<path fill-rule="evenodd" clip-rule="evenodd" d="M121.433 6.09766L40.6416 53.9583V199.38L121.433 151.519V6.09766Z" fill="#CEAE8A"/>
<path fill-rule="evenodd" clip-rule="evenodd" d="M121.208 5.92285L167.07 33.7501V179.17L121.208 151.343V5.92285Z" fill="#B49067"/>
<path fill-rule="evenodd" clip-rule="evenodd" d="M90.579 0.104492L68.7758 12.8008L63.7646 22.3239L63.8383 40.7864L65.6708 39.7091L65.6081 25.3571L66.7094 21.2042L90.9584 7.49686V24.5137L95.5091 21.8285V9.15434L90.579 0.104492Z" fill="#B49067"/>
<path fill-rule="evenodd" clip-rule="evenodd" d="M90.3903 0L68.7749 12.8013L70.4011 13.9928L92.2687 1.04236L90.3903 0Z" fill="#F4E3CF"/>
<path fill-rule="evenodd" clip-rule="evenodd" d="M92.2693 1.04199L70.4016 13.9925L65.5415 23.3443V40.1162L70.5563 37.164V20.8636L92.2288 7.99789V24.6593L96.7795 22.0331V5.57613L92.2693 1.04199Z" fill="#CEAE8A"/>
<path fill-rule="evenodd" clip-rule="evenodd" d="M127.809 87.0711C143.681 87.0711 156.624 76.2625 156.624 63.0081C156.624 49.7538 143.683 38.9434 127.809 38.9434C111.94 38.9434 98.9932 49.7538 98.9932 63.0081C98.9932 76.2625 111.94 87.0711 127.809 87.0711Z" fill="#ECE1A9"/>
<path fill-rule="evenodd" clip-rule="evenodd" d="M134.027 40.7559C143.963 42.29 151.331 48.0046 150.481 53.5203C149.628 59.0324 140.88 62.2608 130.946 60.7267C121.009 59.1926 113.64 53.478 114.491 47.9641C115.34 42.4521 124.09 39.2237 134.027 40.7559Z" fill="#FFFDF7"/>
<path fill-rule="evenodd" clip-rule="evenodd" d="M127.808 38.9414C143.722 38.9414 156.624 49.7187 156.624 63.0062C156.624 67.6066 155.075 71.9032 152.396 75.557C147.167 79.9898 139.9 82.7413 131.865 82.7413C115.953 82.7413 103.049 71.9658 103.049 58.6783C103.049 54.0797 104.598 49.7832 107.275 46.1293C112.498 41.6947 119.769 38.9414 127.808 38.9414Z" fill="#F6F0C9"/>
<path fill-rule="evenodd" clip-rule="evenodd" d="M134.027 40.7556C143.963 42.2897 151.331 48.0061 150.481 53.52C149.628 59.0321 140.88 62.2605 130.946 60.7282C121.009 59.1941 113.64 53.4777 114.491 47.9656C115.34 42.4517 124.092 39.2215 134.027 40.7556Z" fill="#FFFDF7"/>
<path fill-rule="evenodd" clip-rule="evenodd" d="M76.8574 53.3887C89.5409 53.3887 100.267 58.5876 103.814 65.7406H104.978V69.5528C105.031 69.9966 105.06 70.446 105.06 70.9009C105.06 80.5714 92.4322 88.4131 76.8593 88.4131C61.2882 88.4131 48.6582 80.5714 48.6582 70.9009V65.7406H49.905C53.452 58.5876 64.1796 53.3887 76.8574 53.3887Z" fill="#E1E7E9"/>
<path fill-rule="evenodd" clip-rule="evenodd" d="M104.977 70.1001V70.6102C104.988 70.6968 104.997 70.7852 105.004 70.8736C104.113 80.045 91.853 87.314 76.8583 87.314C61.2872 87.314 48.6572 79.4722 48.6572 69.7999C48.6572 69.6231 48.6609 69.4463 48.672 69.2695C49.1158 78.7006 61.5671 86.2624 76.8583 86.2624C91.7001 86.2642 103.868 79.1407 104.977 70.1001Z" fill="#CAD4D7"/>
<path fill-rule="evenodd" clip-rule="evenodd" d="M76.8583 81.9014C92.3908 81.9014 105.059 74.0357 105.059 64.3873C105.059 54.7426 92.3889 46.877 76.8583 46.877C61.3277 46.877 48.6572 54.7426 48.6572 64.3873C48.6572 74.0339 61.3277 81.9014 76.8583 81.9014Z" fill="url(#paint0_linear_408_11265)"/>
<path fill-rule="evenodd" clip-rule="evenodd" d="M76.8588 48.0762C91.3728 48.0762 103.141 55.3838 103.141 64.3968C103.141 73.408 91.3709 80.7157 76.8588 80.7157V79.6862C90.4556 79.6862 101.482 72.8408 101.482 64.3968C101.482 55.9529 90.4556 49.1075 76.8588 49.1075V48.0762ZM76.8588 80.7157C62.3484 80.7157 50.5767 73.408 50.5767 64.3968C50.5767 55.3838 62.3484 48.0762 76.8588 48.0762V49.1075C63.2637 49.1075 52.2415 55.9529 52.2415 64.3968C52.2415 72.8426 63.2637 79.6862 76.8588 79.6862V80.7157Z" fill="#C9D6DB"/>
<path fill-rule="evenodd" clip-rule="evenodd" d="M76.8587 76.1442C87.2879 76.1442 95.7871 70.8642 95.7871 64.3872C95.7871 57.9138 87.2879 52.6338 76.8587 52.6338C66.435 52.6338 57.9321 57.9156 57.9321 64.3872C57.9303 70.8624 66.435 76.1442 76.8587 76.1442Z" fill="#C9D6DB"/>
<path fill-rule="evenodd" clip-rule="evenodd" d="M76.8587 55.6318C86.4942 55.6318 94.4464 60.1033 95.6361 65.8843C94.4483 71.6689 86.4942 76.1404 76.8587 76.1404C67.2269 76.1404 59.2691 71.6689 58.085 65.8843C59.271 60.1033 67.225 55.6318 76.8587 55.6318Z" fill="#EAECEB"/>
<path fill-rule="evenodd" clip-rule="evenodd" d="M76.8575 73.6914C83.3291 73.6914 88.6017 70.417 88.6017 66.4003C88.6017 62.3837 83.3291 59.1074 76.8575 59.1074C70.3897 59.1074 65.1152 62.3837 65.1152 66.4003C65.1152 70.4151 70.3897 73.6914 76.8575 73.6914Z" fill="#C9D6DB"/>
<path fill-rule="evenodd" clip-rule="evenodd" d="M76.8575 71.6807C83.3291 71.6807 88.6017 68.4062 88.6017 64.3878C88.6017 60.3711 83.3291 57.0967 76.8575 57.0967C70.3897 57.0967 65.1152 60.3711 65.1152 64.3878C65.1152 68.4044 70.3897 71.6807 76.8575 71.6807Z" fill="url(#paint1_linear_408_11265)"/>
<path fill-rule="evenodd" clip-rule="evenodd" d="M86.7745 75.238C88.8482 74.494 90.548 73.6229 91.8703 72.6229C93.3124 71.5344 95.4505 73.8678 93.8428 74.691C92.1411 75.5621 90.4431 76.4351 88.7451 77.308C87.1373 78.1312 85.071 75.8476 86.7745 75.238Z" fill="#CAD4D7"/>
<path fill-rule="evenodd" clip-rule="evenodd" d="M86.683 75.7864C88.8212 74.9927 90.6444 74.1418 91.7825 73.1713C92.7365 72.3555 94.1895 73.4199 94.3369 74.2505C94.2429 74.4144 94.0846 74.5654 93.8433 74.6888C92.6315 75.652 90.8764 76.5139 88.7457 77.3058C87.5688 77.7404 86.3386 77.0572 86.1895 76.2266C86.2834 76.0627 86.4289 75.8841 86.683 75.7864Z" fill="#94AEB6"/>
<path fill-rule="evenodd" clip-rule="evenodd" d="M135.088 28.376L113.285 41.0723L108.274 50.5954L108.348 69.0579L110.178 67.9824L110.119 53.6305L111.217 49.4775L135.469 35.7702V52.787L140.02 50.1037V37.4277L135.088 28.376Z" fill="#B49067"/>
<path fill-rule="evenodd" clip-rule="evenodd" d="M134.901 28.2715L113.284 41.0728L114.91 42.2661L136.778 29.3139L134.901 28.2715Z" fill="#F4E3CF"/>
<path fill-rule="evenodd" clip-rule="evenodd" d="M136.779 29.3135L114.911 42.2658L110.051 51.6176V68.3895L115.066 65.4355V49.1351L136.736 36.2712V52.9326L141.289 50.3045V33.8494L136.779 29.3135Z" fill="#D5B795"/>
<path fill-rule="evenodd" clip-rule="evenodd" d="M167.275 33.9473L86.48 81.8079V227.226L167.275 179.369V33.9473Z" fill="#D5B795"/>
<path fill-rule="evenodd" clip-rule="evenodd" d="M86.5088 119.013L167.247 71.335V96.1438L86.5088 143.824V119.013Z" fill="#FFE77B"/>
<path fill-rule="evenodd" clip-rule="evenodd" d="M154.194 87.0439L154.881 89.4768L157.126 88.1213L155.306 90.9667L156.004 93.3921L154.194 92.7199L152.38 95.5726L153.076 92.3092L151.26 91.6462L153.503 90.3037L154.194 87.0439Z" fill="#161616"/>
<path fill-rule="evenodd" clip-rule="evenodd" d="M99.2752 118.912L99.9639 121.347L102.207 119.993L100.389 122.84L101.087 125.268L99.2752 124.592L97.4611 127.444L98.1591 124.181L96.3433 123.518L98.5864 122.177L99.2752 118.912Z" fill="#161616"/>
<path fill-rule="evenodd" clip-rule="evenodd" d="M128.932 102L129.621 104.435L131.864 103.081L130.047 105.928L130.745 108.356L128.932 107.68L127.118 110.532L127.816 107.269L126 106.606L128.244 105.265L128.932 102Z" fill="#161616"/>
<path fill-rule="evenodd" clip-rule="evenodd" d="M40.6187 53.9805L86.4811 81.8077V227.226L40.6187 199.4V53.9805Z" fill="#B49067"/>
<path fill-rule="evenodd" clip-rule="evenodd" d="M42.8159 198.091L84.019 223.044L80.2565 208.581L49.7423 190.55L42.8159 198.091Z" fill="#CEAE8A"/>
<path fill-rule="evenodd" clip-rule="evenodd" d="M194.212 188.62C205.936 188.62 215.499 182.683 215.499 175.401C215.499 168.12 205.936 162.181 194.212 162.181C182.486 162.181 172.923 168.12 172.923 175.401C172.923 182.683 182.486 188.62 194.212 188.62Z" fill="#B19C85"/>
<path fill-rule="evenodd" clip-rule="evenodd" d="M169.665 132.565H219.924L211.637 174.16H211.494C211.494 180.148 203.674 185.005 194.028 185.005C185.313 185.005 178.086 181.041 176.773 175.857C176.691 175.529 176.495 174.63 176.419 174.16L169.665 132.565Z" fill="#C9D6DB"/>
<path fill-rule="evenodd" clip-rule="evenodd" d="M169.665 132.565H219.924L212.649 169.083H212.532C212.532 169.367 212.514 169.646 212.481 169.925L212.249 171.094C210.717 176.496 203.119 180.602 193.982 180.602C185.443 180.602 178.253 177.017 176.094 172.14L169.665 132.565Z" fill="#C9D6DB"/>
<path fill-rule="evenodd" clip-rule="evenodd" d="M219.211 136.135L211.637 174.16C211.547 174.617 211.512 175.087 211.415 175.553C210.303 180.882 202.908 185.005 194.029 185.005C189.47 185.005 185.318 183.919 182.207 182.141C181.933 181.282 181.814 180.386 181.867 179.464H181.725L177.485 136.134H219.211V136.135Z" fill="#D5E0E0"/>
<path fill-rule="evenodd" clip-rule="evenodd" d="M219.21 136.135L212.647 169.084L212.482 169.914L212.243 171.111C210.699 176.505 203.108 180.602 193.98 180.602C189.196 180.602 184.836 179.476 181.546 177.628L177.485 136.134H219.21V136.135Z" fill="#D5E0E0"/>
<path fill-rule="evenodd" clip-rule="evenodd" d="M213.378 136.135L207.752 180.868C204.553 183.385 199.594 185.006 194.028 185.006C191.454 185.006 189.01 184.658 186.809 184.037L184.669 137.061L192.936 136.136H213.378V136.135Z" fill="#DD9055"/>
<path fill-rule="evenodd" clip-rule="evenodd" d="M213.378 136.135L207.752 180.868C204.553 183.385 199.594 185.006 194.028 185.006C191.454 185.006 189.01 184.658 186.809 184.037L184.669 137.061L192.936 136.136H213.378V136.135Z" fill="#F3F3F5"/>
<path fill-rule="evenodd" clip-rule="evenodd" d="M213.377 136.135L208.315 176.393C204.913 178.961 199.755 180.602 193.981 180.602C191.361 180.602 188.869 180.262 186.607 179.655L184.667 137.059L192.934 136.134H213.377V136.135Z" fill="#EAECEB"/>
<path fill-rule="evenodd" clip-rule="evenodd" d="M214.044 132.565L208.398 176.327C204.996 178.934 199.8 180.602 193.98 180.602C189.021 180.602 184.517 179.392 181.188 177.423L177.047 132.565H214.044Z" fill="#EFD250"/>
<path fill-rule="evenodd" clip-rule="evenodd" d="M208.315 176.39C204.913 178.961 199.756 180.602 193.981 180.602C191.361 180.602 188.868 180.262 186.607 179.655L184.667 137.059L192.934 136.134H213.377L208.315 176.39Z" fill="#EFD250"/>
<path fill-rule="evenodd" clip-rule="evenodd" d="M214.045 132.566L209.04 171.361C205.391 174.032 199.948 175.728 193.868 175.728C188.841 175.728 184.251 174.57 180.75 172.659L177.049 132.564H214.045V132.566Z" fill="#FFE77B"/>
<path fill-rule="evenodd" clip-rule="evenodd" d="M208.939 171.435C205.292 174.064 199.893 175.729 193.868 175.729C191.222 175.729 188.698 175.408 186.389 174.824L184.669 137.059L192.936 136.134H213.379L208.939 171.435Z" fill="#FFE77B"/>
<path fill-rule="evenodd" clip-rule="evenodd" d="M195.501 149L197.498 155.12L204 155.105L198.731 158.88L200.752 164.991L195.501 161.207L190.248 165L192.269 158.885L187 155.115L193.504 155.124L195.501 149Z" fill="#161616"/>
<path fill-rule="evenodd" clip-rule="evenodd" d="M169.665 132.565H219.923L218.913 137.635C213.978 142.725 204.998 146.132 194.738 146.132C184.418 146.132 175.393 142.688 170.476 137.55L169.665 132.565Z" fill="#B5C5CC"/>
<path fill-rule="evenodd" clip-rule="evenodd" d="M214.045 132.743L212.82 142.231C207.924 144.775 201.618 146.307 194.737 146.307C188.464 146.307 182.67 145.033 177.985 142.881L177.049 132.743H214.045Z" fill="#EFD250"/>
<path fill-rule="evenodd" clip-rule="evenodd" d="M221.863 71.751C224.22 69.2959 220.669 66.9251 218.831 68.8379L201.469 86.915L204.502 89.8281L221.863 71.751Z" fill="#FFE77B"/>
<path fill-rule="evenodd" clip-rule="evenodd" d="M194.795 107.603C207.477 107.603 218.207 112.802 221.753 119.955H222.917V123.768C222.972 124.212 223 124.662 223 125.116C223 134.789 210.369 142.632 194.795 142.632C179.221 142.632 166.591 134.788 166.591 125.116V119.955H167.837C171.385 112.802 182.112 107.603 194.795 107.603Z" fill="#C9D6DB"/>
<path fill-rule="evenodd" clip-rule="evenodd" d="M222.915 124.315V124.827C222.926 124.914 222.936 125.002 222.943 125.09C222.051 134.262 209.788 141.533 194.793 141.533C179.218 141.533 166.589 133.69 166.589 124.018C166.589 123.842 166.593 123.664 166.602 123.487C167.047 132.919 179.5 140.482 194.794 140.482C209.637 140.482 221.805 133.357 222.915 124.315Z" fill="#A0B5BC"/>
<path fill-rule="evenodd" clip-rule="evenodd" d="M194.795 136.117C210.33 136.117 223 128.25 223 118.602C223 108.957 210.329 101.089 194.795 101.089C179.26 101.089 166.591 108.957 166.591 118.602C166.59 128.25 179.26 136.117 194.795 136.117Z" fill="url(#paint2_linear_408_11265)"/>
<path fill-rule="evenodd" clip-rule="evenodd" d="M194.792 102.288C209.306 102.288 221.076 109.599 221.076 118.611C221.076 127.624 209.306 134.934 194.792 134.934V133.902C208.389 133.902 219.417 127.056 219.417 118.611C219.417 110.168 208.389 103.32 194.792 103.32V102.288ZM194.792 134.933C180.279 134.933 168.509 127.623 168.509 118.61C168.509 109.597 180.279 102.287 194.792 102.287V103.32C181.196 103.32 170.168 110.167 170.168 118.61C170.168 127.055 181.196 133.901 194.792 133.901V134.933Z" fill="#C9D6DB"/>
<path fill-rule="evenodd" clip-rule="evenodd" d="M194.795 130.359C205.223 130.359 213.726 125.079 213.726 118.602C213.726 112.128 205.222 106.848 194.795 106.848C184.368 106.848 175.864 112.128 175.864 118.602C175.863 125.078 184.368 130.359 194.795 130.359Z" fill="#C9D6DB"/>
<path fill-rule="evenodd" clip-rule="evenodd" d="M194.794 109.847C204.428 109.847 212.385 114.318 213.57 120.1C212.385 125.886 204.43 130.358 194.794 130.358C185.158 130.358 177.201 125.885 176.017 120.1C177.204 114.318 185.158 109.847 194.794 109.847Z" fill="#EAECEB"/>
<path fill-rule="evenodd" clip-rule="evenodd" d="M194.793 127.908C201.263 127.908 206.538 124.631 206.538 120.614C206.538 116.598 201.263 113.32 194.793 113.32C188.324 113.32 183.048 116.598 183.048 120.614C183.048 124.631 188.324 127.908 194.793 127.908Z" fill="#C9D6DB"/>
<path fill-rule="evenodd" clip-rule="evenodd" d="M194.793 125.897C201.263 125.897 206.538 122.621 206.538 118.605C206.538 114.588 201.263 111.311 194.793 111.311C188.324 111.311 183.048 114.588 183.048 118.605C183.048 122.621 188.324 125.897 194.793 125.897Z" fill="url(#paint3_linear_408_11265)"/>
<path fill-rule="evenodd" clip-rule="evenodd" d="M195.027 120.604C196.78 120.604 198.21 119.715 198.21 118.626C198.21 117.536 196.779 116.647 195.027 116.647C193.273 116.647 191.843 117.536 191.843 118.626C191.843 119.715 193.273 120.604 195.027 120.604Z" fill="#94AEB6"/>
<path fill-rule="evenodd" clip-rule="evenodd" d="M204.645 88.6463C205.289 85.9672 201.189 85.2505 200.578 87.583L192.746 120.005C194.151 120.793 195.59 120.804 197.056 120.149L204.645 88.6463Z" fill="#EFD250"/>
<path fill-rule="evenodd" clip-rule="evenodd" d="M54.8608 213.729C64.378 217.597 73.2045 225.869 75.2526 234.287C75.8343 234.354 75.709 234.684 75.4236 235.078C75.5358 235.659 75.6153 236.24 75.6589 236.821C76.208 236.667 76.8344 236.397 77.2048 236.446C77.5676 236.492 77.0055 237.788 76.8736 237.935C75.0554 239.965 81.2302 242.404 78.4457 242.404C77.3824 242.404 76.4629 241.883 75.3855 241.825C75.2678 241.818 75.1709 241.818 75.087 241.822C75.0434 241.963 74.9955 242.103 74.9465 242.244C75.9226 243.132 79.9763 245.114 74.6414 245.302C74.052 245.322 73.6359 245.327 73.3461 245.341C73.187 245.576 73.0149 245.808 72.8384 246.039C72.8972 246.279 72.967 246.602 72.9877 247.04C73.0672 248.778 72.2708 248.535 71.2882 247.77C70.5049 248.537 69.6061 249.278 68.5908 249.991C68.5799 250.954 68.301 251.515 67.4404 250.748C66.7715 251.166 66.0611 251.573 65.2986 251.968C64.2789 252.492 63.2406 252.984 62.1904 253.443C59.4123 256.794 53.5115 259.36 46.9625 259.487C42.6844 259.487 38.7963 258.569 35.9256 257.073C32.1846 256.522 28.3967 255.504 24.6109 253.966C5.4328 246.177 5.45023 235.762 10.6718 222.904C15.8945 210.046 35.6838 205.939 54.8608 213.729Z" fill="#B19C85"/>
<path fill-rule="evenodd" clip-rule="evenodd" d="M48.2715 215.877C57.7886 219.744 66.6151 228.016 68.6632 236.434C69.245 236.502 69.1197 236.832 68.8343 237.225C68.9465 237.807 69.026 238.387 69.0696 238.968C69.6186 238.814 70.2451 238.544 70.6155 238.593C70.9782 238.639 70.4161 239.935 70.2843 240.083C68.466 242.112 74.6409 244.551 71.8563 244.551C70.793 244.551 69.8736 244.031 68.7961 243.973C68.6785 243.965 68.5815 243.965 68.4976 243.97C68.454 244.11 68.4061 244.251 68.3571 244.391C69.3332 245.279 73.3869 247.262 68.0521 247.449C67.4627 247.47 67.0465 247.474 66.7567 247.488C66.5977 247.724 66.4255 247.956 66.2491 248.187C66.3079 248.426 66.3776 248.75 66.3983 249.188C66.4778 250.926 65.6815 250.683 64.6988 249.918C63.9155 250.685 63.0168 251.426 62.0014 252.138C61.9905 253.101 61.7116 253.662 60.851 252.895C60.1821 253.314 59.4718 253.721 58.7092 254.115C57.6895 254.639 56.6513 255.132 55.6011 255.59C53.6672 258.022 56.1128 258.484 47.9806 259.543C45.564 259.792 35.8359 260.589 29.3363 259.22C25.5952 258.669 21.8073 257.652 18.0216 256.113C-1.15656 248.324 -1.13913 237.909 4.08246 225.052C9.30513 212.193 29.0944 208.086 48.2715 215.877Z" fill="#B19C85"/>
<path fill-rule="evenodd" clip-rule="evenodd" d="M39.0527 254.189C58.5576 254.189 74.4664 244.994 74.4664 233.72C74.4664 222.446 58.5576 213.251 39.0527 213.251C19.5488 213.251 3.64111 222.446 3.64111 233.72C3.64111 244.994 19.5488 254.189 39.0527 254.189Z" fill="#E69A06"/>
<path fill-rule="evenodd" clip-rule="evenodd" d="M39.0532 213.253C58.0745 213.253 73.5932 221.924 74.4288 232.798C73.5932 243.673 58.0745 252.345 39.0532 252.345C20.0331 252.345 4.51212 243.673 3.67871 232.798C4.51212 221.924 20.0331 213.253 39.0532 213.253Z" fill="#FFB31F"/>
<path fill-rule="evenodd" clip-rule="evenodd" d="M39.0534 248.712C58.6346 248.712 74.6033 240.436 74.6033 230.289C74.6033 220.144 58.6346 211.867 39.0534 211.867C19.4733 211.867 3.50244 220.144 3.50244 230.289C3.50244 240.437 19.4733 248.712 39.0534 248.712Z" fill="#FFD47F"/>
<path fill-rule="evenodd" clip-rule="evenodd" d="M39.0543 247.273C57.484 247.273 72.5158 239.052 72.5158 228.971C72.5158 218.892 57.484 210.669 39.0543 210.669C20.6257 210.669 5.59277 218.891 5.59277 228.971C5.59277 239.052 20.6257 247.273 39.0543 247.273Z" fill="#7F3714"/>
<path fill-rule="evenodd" clip-rule="evenodd" d="M39.0543 244.334C57.484 244.334 72.5158 236.546 72.5158 226.995C72.5158 217.443 57.484 209.654 39.0543 209.654C20.6257 209.654 5.59277 217.443 5.59277 226.995C5.59277 236.546 20.6257 244.334 39.0543 244.334Z" fill="#934D2B"/>
<path d="M45.7208 247.943C54.5641 247.943 61.7331 244.021 61.7331 239.184C61.7331 234.346 54.5641 230.425 45.7208 230.425C36.8774 230.425 29.7085 234.346 29.7085 239.184C29.7085 244.021 36.8774 247.943 45.7208 247.943Z" fill="#D32128"/>
<path fill-rule="evenodd" clip-rule="evenodd" d="M45.7208 246.535C54.5396 246.535 61.7331 242.81 61.7331 238.239C61.7331 233.669 54.5385 229.942 45.7208 229.942C36.903 229.942 29.7085 233.669 29.7085 238.239C29.7085 242.81 36.9019 246.535 45.7208 246.535Z" fill="#F17761"/>
<path fill-rule="evenodd" clip-rule="evenodd" d="M46.1002 244.644C53.1172 244.644 58.841 241.679 58.841 238.042C58.841 234.406 53.1172 231.44 46.1002 231.44C39.0855 231.44 33.3584 234.406 33.3584 238.042C33.3584 241.679 39.0844 244.644 46.1002 244.644Z" fill="#EE4623"/>
<path fill-rule="evenodd" clip-rule="evenodd" d="M16.122 240.391C24.9431 240.391 32.1343 236.456 32.1343 231.633C32.1343 226.81 24.942 222.874 16.122 222.874C7.30428 222.874 0.11084 226.809 0.11084 231.633C0.11084 236.456 7.30428 240.391 16.122 240.391Z" fill="#489645"/>
<path fill-rule="evenodd" clip-rule="evenodd" d="M16.122 238.984C24.9431 238.984 32.1343 235.257 32.1343 230.687C32.1343 226.117 24.942 222.39 16.122 222.39C7.30428 222.39 0.11084 226.117 0.11084 230.687C0.11084 235.257 7.30428 238.984 16.122 238.984Z" fill="#CBDD87"/>
<path d="M16.1223 239.096C7.23374 239.096 0 235.324 0 230.687C0 226.051 7.23374 222.279 16.1223 222.279C25.0131 222.279 32.2457 226.051 32.2457 230.687C32.2457 235.324 25.0131 239.096 16.1223 239.096ZM16.1223 222.5C7.35575 222.5 0.221139 226.174 0.221139 230.687C0.221139 235.201 7.35575 238.874 16.1223 238.874C24.891 238.874 32.0245 235.201 32.0245 230.687C32.0245 226.173 24.891 222.5 16.1223 222.5Z" fill="#F9DBB3"/>
<path fill-rule="evenodd" clip-rule="evenodd" d="M16.1211 237.792C23.6719 237.792 29.8293 234.601 29.8293 230.688C29.8293 226.776 23.6719 223.585 16.1211 223.585C8.57146 223.585 2.41406 226.776 2.41406 230.688C2.41406 234.601 8.57255 237.792 16.1211 237.792Z" fill="#9BC83C"/>
<path fill-rule="evenodd" clip-rule="evenodd" d="M46.1051 236.775C49.0585 236.775 51.4683 235.526 51.4683 233.998C51.4683 232.467 49.0585 231.22 46.1051 231.22C43.1538 231.22 40.7451 232.468 40.7451 233.998C40.7451 235.527 43.1538 236.775 46.1051 236.775Z" fill="#EB1D25"/>
<path fill-rule="evenodd" clip-rule="evenodd" d="M47.8775 220.831C56.6103 220.708 67.4326 221.402 76.5249 222.446C77.6644 222.577 75.7808 223.955 75.7808 224.515C75.7808 225.778 77.6568 224.498 78.4259 224.598C78.7887 224.644 78.2265 225.941 78.0958 226.089C76.2786 228.117 82.4535 230.557 79.6667 230.557C78.6046 230.557 77.6862 230.037 76.6066 229.979C73.5377 229.811 82.9252 233.207 75.8625 233.454C73.1139 233.55 74.1227 233.309 74.2088 235.193C74.4277 239.96 68.0427 229.823 69.3303 234.862C69.7923 236.671 70.5897 241.455 67.9261 238.088C65.9139 235.55 65.5119 232.178 61.9735 233.537C61.3972 233.758 62.0171 231.468 60.3187 231.468C54.5731 231.468 52.6132 230.177 46.5103 231.055C45.362 231.221 37.7154 231.665 38.9029 228.986C39.8376 226.879 35.6738 225.976 34.3567 225.097C32.484 223.843 44.1571 217.893 47.8775 220.831Z" fill="#489645"/>
<path fill-rule="evenodd" clip-rule="evenodd" d="M47.5454 219.757C56.2792 219.633 67.1015 220.327 76.1938 221.371C77.3344 221.5 75.4497 222.88 75.4497 223.44C75.4497 224.701 77.3268 223.423 78.0959 223.522C78.4576 223.568 77.8977 224.866 77.7637 225.012C75.9476 227.04 82.1224 229.48 79.3357 229.48C78.2746 229.48 77.3551 228.96 76.2766 228.902C73.2066 228.735 82.5952 232.13 75.5314 232.378C72.7828 232.474 73.7916 232.233 73.8777 234.116C74.0956 238.884 67.7105 228.748 68.9982 233.786C69.4612 235.594 70.2587 240.378 67.5929 237.013C65.5818 234.474 65.1798 231.101 61.6403 232.46C61.0661 232.681 61.6849 230.391 59.9865 230.391C54.242 230.391 52.2811 229.101 46.1781 229.979C45.0288 230.143 37.3843 230.589 38.5718 227.909C39.5065 225.801 35.3428 224.898 34.0257 224.019C32.153 222.767 43.8261 216.816 47.5454 219.757Z" fill="#BED261"/>
<path fill-rule="evenodd" clip-rule="evenodd" d="M39.0532 196C63.2797 196 73.5932 211.782 74.4288 222.291C73.5932 232.798 58.0745 241.179 39.0532 241.179C20.0331 241.179 4.51212 232.798 3.67871 222.291C4.51212 211.784 14.8289 196 39.0532 196Z" fill="#FFB31F"/>
<path fill-rule="evenodd" clip-rule="evenodd" d="M40.6789 196.398C58.1173 196.181 71.5563 209.698 72.3026 218.385C71.5553 227.071 57.6837 233.997 40.6789 233.997C23.6764 233.997 9.79827 227.071 9.0542 218.385C9.79936 209.698 23.2384 196.616 40.6789 196.398Z" fill="#FFC148"/>
<path fill-rule="evenodd" clip-rule="evenodd" d="M43.7843 198.081C52.5149 198.008 59.2442 202.662 59.619 205.652C59.2442 208.644 52.297 211.028 43.7843 211.028C35.2694 211.028 28.3244 208.644 27.9507 205.652C28.3233 202.662 35.0526 198.156 43.7843 198.081Z" fill="#FFD47F"/>
<path fill-rule="evenodd" clip-rule="evenodd" d="M23.9927 221.023C25.0974 221.023 25.9972 220.513 25.9972 219.888C25.9972 219.263 25.0974 218.753 23.9927 218.753C22.8891 218.753 21.9893 219.263 21.9893 219.888C21.9893 220.513 22.8891 221.023 23.9927 221.023Z" fill="#E69A06"/>
<path fill-rule="evenodd" clip-rule="evenodd" d="M24.4351 220.435C25.5408 220.435 26.4396 219.924 26.4396 219.299C26.4396 218.674 25.5408 218.163 24.4351 218.163C23.3304 218.163 22.4316 218.674 22.4316 219.299C22.4316 219.924 23.3304 220.435 24.4351 220.435Z" fill="#F9DBB3"/>
<path fill-rule="evenodd" clip-rule="evenodd" d="M36.0614 213.043C37.0844 213.462 37.7239 214.273 37.4875 214.853C37.2489 215.434 36.2259 215.565 35.2018 215.145C34.1789 214.727 33.5416 213.915 33.7769 213.335C34.0144 212.753 35.0373 212.623 36.0614 213.043Z" fill="#E69A06"/>
<path fill-rule="evenodd" clip-rule="evenodd" d="M36.6975 212.665C37.7194 213.084 38.3578 213.895 38.1214 214.474C37.8839 215.056 36.8609 215.186 35.8358 214.766C34.8128 214.347 34.1744 213.537 34.4119 212.956C34.6494 212.376 35.6724 212.245 36.6975 212.665Z" fill="#F9DBB3"/>
<path fill-rule="evenodd" clip-rule="evenodd" d="M47.1586 219.67C48.1859 219.264 49.2078 219.406 49.4398 219.988C49.6708 220.571 49.0215 221.375 47.9942 221.782C46.9657 222.189 45.9439 222.047 45.7118 221.463C45.482 220.88 46.1302 220.076 47.1586 219.67Z" fill="#E69A06"/>
<path fill-rule="evenodd" clip-rule="evenodd" d="M47.3514 218.957C48.3798 218.549 49.4017 218.693 49.6337 219.275C49.8625 219.859 49.2154 220.661 48.187 221.068C47.1597 221.475 46.1389 221.331 45.9057 220.75C45.6759 220.167 46.323 219.364 47.3514 218.957Z" fill="#F9DBB3"/>
<path fill-rule="evenodd" clip-rule="evenodd" d="M56.5877 209.994C57.6793 210.168 58.4854 210.811 58.3874 211.43C58.2882 212.049 57.323 212.412 56.2303 212.238C55.1377 212.064 54.3315 211.42 54.4306 210.803C54.5265 210.184 55.4939 209.821 56.5877 209.994Z" fill="#E69A06"/>
<path fill-rule="evenodd" clip-rule="evenodd" d="M57.1165 209.479C58.2091 209.652 59.0153 210.295 58.9184 210.915C58.8192 211.534 57.8518 211.896 56.7591 211.722C55.6675 211.548 54.8603 210.905 54.9594 210.287C55.0585 209.667 56.0238 209.306 57.1165 209.479Z" fill="#F9DBB3"/>
<path fill-rule="evenodd" clip-rule="evenodd" d="M24.4669 204.651C25.4572 204.157 26.4889 204.212 26.7667 204.773C27.0466 205.335 26.4703 206.19 25.4801 206.684C24.4898 207.177 23.4603 207.121 23.1803 206.56C22.9025 206 23.4766 205.144 24.4669 204.651Z" fill="#E69A06"/>
<path fill-rule="evenodd" clip-rule="evenodd" d="M24.6001 203.925C25.5893 203.431 26.6199 203.487 26.8977 204.048C27.1788 204.609 26.6025 205.465 25.6122 205.957C24.6208 206.451 23.5913 206.395 23.3124 205.835C23.0336 205.272 23.6098 204.418 24.6001 203.925Z" fill="#F9DBB3"/>
<path fill-rule="evenodd" clip-rule="evenodd" d="M46.0809 208.531C47.0353 209.407 47.4078 210.556 46.9111 211.097C46.4154 211.638 45.2377 211.367 44.2834 210.492C43.328 209.616 42.9565 208.467 43.4533 207.927C43.9489 207.385 45.1255 207.655 46.0809 208.531Z" fill="#E69A06"/>
<path fill-rule="evenodd" clip-rule="evenodd" d="M46.9306 208.372C47.8849 209.247 48.2564 210.395 47.7596 210.938C47.2639 211.479 46.0874 211.207 45.1319 210.331C44.1776 209.455 43.805 208.307 44.3029 207.765C44.7997 207.225 45.9762 207.496 46.9306 208.372Z" fill="#F9DBB3"/>
<path fill-rule="evenodd" clip-rule="evenodd" d="M63.3908 204.608C64.3953 205.016 64.9966 205.755 64.733 206.255C64.4726 206.756 63.442 206.831 62.4376 206.423C61.4331 206.015 60.8307 205.277 61.0965 204.777C61.3591 204.275 62.3853 204.199 63.3908 204.608Z" fill="#E69A06"/>
<path fill-rule="evenodd" clip-rule="evenodd" d="M64.0398 204.301C65.0454 204.709 65.6467 205.447 65.382 205.949C65.1205 206.45 64.0921 206.525 63.0888 206.117C62.0843 205.707 61.4819 204.97 61.7455 204.47C62.0081 203.966 63.0376 203.892 64.0398 204.301Z" fill="#F9DBB3"/>
<path fill-rule="evenodd" clip-rule="evenodd" d="M14.1618 209.461C15.1651 209.868 15.7687 210.607 15.505 211.108C15.2425 211.609 14.2141 211.685 13.2096 211.275C12.2041 210.867 11.6027 210.13 11.8686 209.628C12.1289 209.127 13.1584 209.052 14.1618 209.461Z" fill="#E69A06"/>
<path fill-rule="evenodd" clip-rule="evenodd" d="M14.8124 209.151C15.8169 209.56 16.4193 210.297 16.1557 210.797C15.892 211.299 14.8636 211.375 13.8603 210.966C12.8569 210.557 12.2556 209.82 12.5181 209.319C12.7807 208.818 13.8091 208.742 14.8124 209.151Z" fill="#F9DBB3"/>
<path fill-rule="evenodd" clip-rule="evenodd" d="M34.0802 198.848C34.7839 197.993 35.747 197.624 36.2307 198.023C36.7165 198.422 36.5379 199.437 35.8341 200.291C35.1293 201.145 34.1662 201.514 33.6825 201.116C33.1988 200.717 33.3764 199.701 34.0802 198.848Z" fill="#E69A06"/>
<path fill-rule="evenodd" clip-rule="evenodd" d="M33.9061 198.13C34.6099 197.276 35.5707 196.906 36.0555 197.305C36.5403 197.703 36.3617 198.72 35.6579 199.573C34.9563 200.428 33.9922 200.797 33.5074 200.399C33.0248 199.998 33.2023 198.984 33.9061 198.13Z" fill="#F9DBB3"/>
<path fill-rule="evenodd" clip-rule="evenodd" d="M50.256 197.831C51.3487 198.006 52.1549 198.648 52.0568 199.267C51.9577 199.887 50.9914 200.249 49.8987 200.076C48.8071 199.901 48.0009 199.258 48.1 198.639C48.1981 198.021 49.1622 197.658 50.256 197.831Z" fill="#E69A06"/>
<path fill-rule="evenodd" clip-rule="evenodd" d="M50.7868 197.318C51.8795 197.49 52.6856 198.134 52.5887 198.753C52.4895 199.373 51.5221 199.735 50.4305 199.561C49.3378 199.388 48.5317 198.744 48.6308 198.125C48.7289 197.506 49.693 197.144 50.7868 197.318Z" fill="#F9DBB3"/>
<path fill-rule="evenodd" clip-rule="evenodd" d="M34.1695 206.917C35.1642 206.486 36.112 206.574 36.2863 207.112C36.4595 207.652 35.7938 208.438 34.7981 208.867C33.8035 209.299 32.8568 209.213 32.6836 208.672C32.5071 208.135 33.1749 207.349 34.1695 206.917Z" fill="#E69A06"/>
<path fill-rule="evenodd" clip-rule="evenodd" d="M34.4033 206.239C35.3979 205.807 36.3457 205.895 36.5189 206.434C36.6932 206.973 36.0287 207.758 35.0329 208.19C34.0394 208.621 33.0905 208.533 32.9184 207.995C32.7441 207.457 33.4086 206.669 34.4033 206.239Z" fill="#F9DBB3"/>
<path fill-rule="evenodd" clip-rule="evenodd" d="M51.3325 203.87C52.4045 203.724 53.2945 204.066 53.3152 204.631C53.3381 205.197 52.4807 205.773 51.4077 205.919C50.3335 206.064 49.4434 205.723 49.4227 205.157C49.402 204.592 50.2561 204.016 51.3325 203.87Z" fill="#E69A06"/>
<path fill-rule="evenodd" clip-rule="evenodd" d="M51.7425 203.279C52.8145 203.135 53.7046 203.474 53.7253 204.041C53.746 204.607 52.8908 205.183 51.8177 205.329C50.7424 205.474 49.8546 205.133 49.8339 204.567C49.8132 204 50.6673 203.424 51.7425 203.279Z" fill="#F9DBB3"/>
<path fill-rule="evenodd" clip-rule="evenodd" d="M64.4958 211.141C65.2442 211.926 65.4883 212.845 65.0438 213.196C64.5971 213.543 63.6297 213.189 62.8824 212.404C62.1329 211.619 61.8899 210.7 62.3344 210.351C62.78 210 63.7463 210.355 64.4958 211.141Z" fill="#E69A06"/>
<path fill-rule="evenodd" clip-rule="evenodd" d="M65.2144 211.127C65.9629 211.911 66.2069 212.83 65.7613 213.179C65.3168 213.529 64.3473 213.175 63.6021 212.39C62.8526 211.605 62.6096 210.685 63.0541 210.336C63.4986 209.986 64.4671 210.34 65.2144 211.127Z" fill="#F9DBB3"/>
<path fill-rule="evenodd" clip-rule="evenodd" d="M24.4957 197.72C25.5448 197.372 26.5449 197.479 26.7323 197.959C26.9197 198.441 26.2181 199.113 25.1722 199.462C24.1253 199.81 23.123 199.701 22.9378 199.221C22.7515 198.741 23.4488 198.068 24.4957 197.72Z" fill="#E69A06"/>
<path fill-rule="evenodd" clip-rule="evenodd" d="M24.74 197.128C25.7858 196.78 26.7859 196.888 26.9743 197.368C27.1617 197.85 26.4634 198.522 25.4143 198.869C24.3684 199.218 23.3673 199.11 23.181 198.629C22.9947 198.148 23.6919 197.476 24.74 197.128Z" fill="#F9DBB3"/>
<path fill-rule="evenodd" clip-rule="evenodd" d="M16.7259 202C18.0158 201.901 19.0823 202.255 19.1095 202.79C19.1324 203.327 18.1062 203.843 16.8152 203.942C15.5253 204.043 14.4588 203.688 14.4316 203.152C14.4076 202.614 15.4338 202.101 16.7259 202Z" fill="#E69A06"/>
<path fill-rule="evenodd" clip-rule="evenodd" d="M17.2174 201.455C18.5094 201.356 19.576 201.71 19.6021 202.246C19.6261 202.783 18.5988 203.297 17.3089 203.399C16.019 203.497 14.9492 203.143 14.9253 202.608C14.9002 202.071 15.9264 201.556 17.2174 201.455Z" fill="#F9DBB3"/>
<defs>
<linearGradient id="paint0_linear_408_11265" x1="76.8587" y1="46.876" x2="76.8587" y2="81.9006" gradientUnits="userSpaceOnUse">
<stop stop-color="#F3F3F5"/>
<stop offset="1" stop-color="white"/>
</linearGradient>
<linearGradient id="paint1_linear_408_11265" x1="76.8579" y1="57.0963" x2="76.8579" y2="71.6803" gradientUnits="userSpaceOnUse">
<stop stop-color="#F3F3F5"/>
<stop offset="1" stop-color="white"/>
</linearGradient>
<linearGradient id="paint2_linear_408_11265" x1="194.795" y1="101.088" x2="194.795" y2="136.117" gradientUnits="userSpaceOnUse">
<stop stop-color="#F3F3F5"/>
<stop offset="1" stop-color="white"/>
</linearGradient>
<linearGradient id="paint3_linear_408_11265" x1="194.793" y1="111.31" x2="194.793" y2="125.897" gradientUnits="userSpaceOnUse">
<stop stop-color="#F3F3F5"/>
<stop offset="1" stop-color="white"/>
</linearGradient>
</defs>
</svg>
