<svg width="56" height="56" viewBox="0 0 56 56" fill="none" xmlns="http://www.w3.org/2000/svg">
<path d="M23.4368 46.5919L8.86658 10.1664C8.54005 9.35013 9.35013 8.54005 10.1664 8.86658L46.5919 23.4368C47.2585 23.7034 47.4353 24.5647 46.9276 25.0724L25.0724 46.9276C24.5647 47.4353 23.7034 47.2585 23.4368 46.5919Z" fill="#E59A51"/>
<path d="M41.07 21.228L10.1664 8.86658C9.35013 8.54005 8.54005 9.35013 8.86658 10.1664L21.228 41.07C21.4946 41.7366 22.356 41.9134 22.8636 41.4058L41.4058 22.8636C41.9134 22.356 41.7366 21.4946 41.07 21.228Z" fill="#FFC148"/>
<path d="M28.7436 31.1678C30.5541 29.3573 30.5541 26.422 28.7436 24.6115C26.9331 22.801 23.9978 22.801 22.1873 24.6115C20.3769 26.422 20.3769 29.3573 22.1873 31.1678C23.9978 32.9783 26.9331 32.9783 28.7436 31.1678Z" fill="#AD1A22"/>
<path d="M20.0085 20.005C19.4855 20.5288 18.7765 20.8245 18.0363 20.8275C17.3874 20.8302 16.7576 20.6076 16.2545 20.1978C15.7514 19.788 15.406 19.2163 15.2773 18.5803C15.1486 17.9442 15.2446 17.2833 15.5489 16.7101C15.8531 16.1369 16.3468 15.6871 16.9457 15.4373C17.5447 15.1875 18.2117 15.1532 18.833 15.3403C19.4544 15.5274 19.9916 15.9243 20.353 16.4633C20.7144 17.0023 20.8776 17.6499 20.8148 18.2958C20.752 18.9417 20.467 19.5457 20.0085 20.005Z" fill="#AD1A22"/>
</svg>
