<svg width="56" height="56" viewBox="0 0 56 56" fill="none" xmlns="http://www.w3.org/2000/svg">
<path d="M46.2896 24.5341C46.1817 24.4146 46.05 24.3189 45.9029 24.2534C45.7559 24.1878 45.5967 24.1537 45.4357 24.1533H26.9742C26.8132 24.1537 26.6541 24.1878 26.507 24.2534C26.36 24.3189 26.2283 24.4146 26.1204 24.5341C26.011 24.6529 25.9277 24.7934 25.8761 24.9465C25.8244 25.0995 25.8054 25.2617 25.8204 25.4225L26.9742 36.961C27.0029 37.2466 27.1371 37.5112 27.3504 37.7032C27.5638 37.8953 27.841 38.0009 28.1281 37.9994H44.2819C44.5689 38.0009 44.8462 37.8953 45.0595 37.7032C45.2729 37.5112 45.407 37.2466 45.4357 36.961L46.5896 25.4225C46.6045 25.2617 46.5856 25.0995 46.5339 24.9465C46.4822 24.7934 46.399 24.6529 46.2896 24.5341Z" fill="#A46F3E"/>
<path d="M45.0549 20.6924H27.355C25.8702 20.6924 24.6665 21.896 24.6665 23.3808V23.7731C24.6665 25.2579 25.8702 26.4616 27.355 26.4616H45.0549C46.5397 26.4616 47.7433 25.2579 47.7433 23.7731V23.3808C47.7433 21.896 46.5397 20.6924 45.0549 20.6924Z" fill="#FFF5BB"/>
<path d="M42.7486 17.2305H29.664C28.1792 17.2305 26.9756 18.4341 26.9756 19.9189V20.3112C26.9756 21.796 28.1792 22.9997 29.664 22.9997H42.7486C44.2334 22.9997 45.4371 21.796 45.4371 20.3112V19.9189C45.4371 18.4341 44.2334 17.2305 42.7486 17.2305Z" fill="#EDE3B2"/>
<path d="M40.4399 13.7686H31.9707C30.4859 13.7686 29.2822 14.9722 29.2822 16.457V16.8493C29.2822 18.3341 30.4859 19.5378 31.9707 19.5378H40.4399C41.9247 19.5378 43.1283 18.3341 43.1283 16.8493V16.457C43.1283 14.9722 41.9247 13.7686 40.4399 13.7686Z" fill="#DBD2A1"/>
<path d="M36.2059 8C34.129 8 32.7444 10.7808 32.7444 12.6154C32.7444 13.5334 33.1091 14.4139 33.7582 15.063C34.4074 15.7122 35.2879 16.0769 36.2059 16.0769C37.124 16.0769 38.0044 15.7122 38.6536 15.063C39.3027 14.4139 39.6674 13.5334 39.6674 12.6154C39.6674 10.7808 38.2828 8 36.2059 8Z" fill="#D91F20"/>
<path d="M26.9434 21.8779C26.9425 20.8379 26.5286 19.8408 25.7927 19.1058C25.0444 18.3958 24.0522 18 23.0206 18C21.9891 18 20.9969 18.3958 20.2486 19.1058L9.14722 30.2072C8.41262 30.9427 8 31.9397 8 32.9793C8 34.0188 8.41262 35.0158 9.14722 35.7513C9.51165 36.117 9.9447 36.4072 10.4215 36.6052C10.8983 36.8032 11.4095 36.9051 11.9258 36.9051C12.4421 36.9051 12.9533 36.8032 13.4301 36.6052C13.907 36.4072 14.34 36.117 14.7044 35.7513L25.7927 24.6631C26.1586 24.2976 26.4487 23.8634 26.6462 23.3854C26.8436 22.9074 26.9446 22.3951 26.9434 21.8779Z" fill="#FFC148"/>
<path d="M36.8935 30.2067C36.143 29.4958 35.1486 29.0996 34.1149 29.0996C33.0812 29.0996 32.0868 29.4958 31.3363 30.2067L20.248 41.295C19.8823 41.6594 19.5921 42.0925 19.3941 42.5693C19.1962 43.0461 19.0942 43.5573 19.0942 44.0736C19.0942 44.5899 19.1962 45.1011 19.3941 45.5779C19.5921 46.0547 19.8823 46.4878 20.248 46.8522C20.9835 47.5868 21.9805 47.9994 23.0201 47.9994C24.0596 47.9994 25.0566 47.5868 25.7921 46.8522L36.8935 35.7509C37.6281 35.0153 38.0407 34.0183 38.0407 32.9788C38.0407 31.9393 37.6281 30.9422 36.8935 30.2067Z" fill="#FFC148"/>
<path d="M34.1225 21.8778C33.5152 21.2689 32.7937 20.7859 31.9994 20.4563C31.2051 20.1267 30.3536 19.957 29.4936 19.957C28.6337 19.957 27.7822 20.1267 26.9879 20.4563C26.1936 20.7859 25.4721 21.2689 24.8648 21.8778L11.9198 34.8228C10.6921 36.0505 10.0024 37.7155 10.0024 39.4517C10.0024 41.1878 10.6921 42.8528 11.9198 44.0805C13.1474 45.3081 14.8124 45.9978 16.5486 45.9978C18.2847 45.9978 19.9498 45.3081 21.1774 44.0805L34.1225 31.1354C34.7313 30.5281 35.2144 29.8067 35.544 29.0124C35.8736 28.2181 36.0432 27.3666 36.0432 26.5066C36.0432 25.6467 35.8736 24.7951 35.544 24.0009C35.2144 23.2066 34.7313 22.4851 34.1225 21.8778Z" fill="#E05C22"/>
<path d="M15.9988 40.2095C15.8267 40.2105 15.6561 40.1775 15.4968 40.1124C15.3375 40.0473 15.1926 39.9515 15.0704 39.8303C14.9478 39.7087 14.8505 39.5641 14.7842 39.4048C14.7178 39.2454 14.6836 39.0745 14.6836 38.9019C14.6836 38.7293 14.7178 38.5584 14.7842 38.399C14.8505 38.2397 14.9478 38.0951 15.0704 37.9735C15.8049 37.279 16.7793 36.8949 17.7901 36.9013C18.3132 36.9013 18.5093 36.9013 18.8101 36.5352C19.1108 36.169 19.1369 36.0383 19.1762 35.5153C19.1999 34.5312 19.6028 33.5943 20.3007 32.9001C20.9917 32.1975 21.9306 31.7938 22.9159 31.7756C23.4389 31.7756 23.635 31.7756 23.9488 31.4095C24.081 31.274 24.1821 31.1115 24.2453 30.9332C24.3086 30.7548 24.3323 30.5649 24.315 30.3765C24.3387 29.3924 24.7415 28.4555 25.4395 27.7613C26.1376 27.0674 27.0711 26.6614 28.0546 26.6237C28.5777 26.6237 28.7738 26.6237 29.0746 26.2576C29.3208 26.0114 29.6547 25.873 30.0029 25.873C30.3511 25.873 30.6851 26.0114 30.9313 26.2576C31.1775 26.5038 31.3159 26.8378 31.3159 27.186C31.3159 27.5342 31.1775 27.8681 30.9313 28.1144C30.1868 28.7521 29.2305 29.088 28.2508 29.0558C27.7277 29.0558 27.5316 29.0558 27.2309 29.4219C26.9301 29.7881 26.904 29.9319 26.8517 30.4549C26.8487 31.4522 26.4584 32.4092 25.7631 33.1241C25.0677 33.8389 24.1218 34.2556 23.1251 34.2861C22.9366 34.2688 22.7467 34.2925 22.5684 34.3557C22.39 34.419 22.2275 34.5201 22.0921 34.6523C21.7913 34.9661 21.7783 35.1491 21.726 35.6722C21.7329 36.6826 21.3391 37.6545 20.6308 38.3751C19.9225 39.0957 18.9574 39.5061 17.947 39.5164C17.424 39.5164 17.2279 39.5165 16.9271 39.8826C16.6721 40.1083 16.339 40.2256 15.9988 40.2095Z" fill="#FFEC95"/>
</svg>
