<svg width="56" height="56" viewBox="0 0 56 56" fill="none" xmlns="http://www.w3.org/2000/svg">
<path d="M41.3158 10H14.7895C12.6966 10 11 11.6966 11 13.7895V17.5789C11 19.6718 12.6966 21.3684 14.7895 21.3684H41.3158C43.4087 21.3684 45.1053 19.6718 45.1053 17.5789V13.7895C45.1053 11.6966 43.4087 10 41.3158 10Z" fill="#FFC148"/>
<path d="M41.3158 34.6318H14.7895C12.6966 34.6318 11 36.3284 11 38.4213V42.2108C11 44.3037 12.6966 46.0003 14.7895 46.0003H41.3158C43.4087 46.0003 45.1053 44.3037 45.1053 42.2108V38.4213C45.1053 36.3284 43.4087 34.6318 41.3158 34.6318Z" fill="#FFC148"/>
<path d="M43.2105 33.6466C41.784 33.6672 40.3843 33.2579 39.1937 32.4719C38.5903 32.0522 37.8729 31.8272 37.1379 31.8272C36.4029 31.8272 35.6855 32.0522 35.0821 32.4719C33.8861 33.2383 32.4953 33.6457 31.0747 33.6457C29.6542 33.6457 28.2634 33.2383 27.0674 32.4719C26.464 32.0522 25.7466 31.8272 25.0116 31.8272C24.2766 31.8272 23.5592 32.0522 22.9558 32.4719C21.7597 33.2383 20.369 33.6457 18.9484 33.6457C17.5279 33.6457 16.1371 33.2383 14.9411 32.4719C14.3498 32.035 13.6296 31.8083 12.8947 31.8277C12.3922 31.8277 11.9103 31.628 11.555 31.2727C11.1996 30.9174 11 30.4354 11 29.9329C11 29.4304 11.1996 28.9485 11.555 28.5931C11.9103 28.2378 12.3922 28.0382 12.8947 28.0382C14.316 28.0131 15.7109 28.423 16.8926 29.2129C17.491 29.6499 18.2172 29.8764 18.9579 29.8571C19.6927 29.8765 20.413 29.6498 21.0042 29.2129C22.2003 28.4465 23.591 28.0391 25.0116 28.0391C26.4321 28.0391 27.8229 28.4465 29.0189 29.2129C29.6223 29.6327 30.3397 29.8576 31.0747 29.8576C31.8097 29.8576 32.5271 29.6327 33.1305 29.2129C34.3266 28.4465 35.7173 28.0391 37.1379 28.0391C38.5585 28.0391 39.9492 28.4465 41.1453 29.2129C41.7436 29.6499 42.4698 29.8764 43.2105 29.8571C43.713 29.8571 44.195 30.0568 44.5503 30.4121C44.9056 30.7674 45.1053 31.2494 45.1053 31.7519C45.1053 32.2544 44.9056 32.7363 44.5503 33.0917C44.195 33.447 43.713 33.6466 43.2105 33.6466Z" fill="#BE1931"/>
<path d="M43.2105 27.962C41.784 27.9826 40.3843 27.5733 39.1937 26.7873C38.5903 26.3676 37.8729 26.1426 37.1379 26.1426C36.4029 26.1426 35.6855 26.3676 35.0821 26.7873C33.8861 27.5538 32.4953 27.9611 31.0747 27.9611C29.6542 27.9611 28.2634 27.5538 27.0674 26.7873C26.464 26.3676 25.7466 26.1426 25.0116 26.1426C24.2766 26.1426 23.5592 26.3676 22.9558 26.7873C21.7597 27.5538 20.369 27.9611 18.9484 27.9611C17.5279 27.9611 16.1371 27.5538 14.9411 26.7873C14.3498 26.3504 13.6296 26.1237 12.8947 26.1431C12.3922 26.1431 11.9103 25.9435 11.555 25.5881C11.1996 25.2328 11 24.7509 11 24.2484C11 23.7458 11.1996 23.2639 11.555 22.9086C11.9103 22.5532 12.3922 22.3536 12.8947 22.3536C14.316 22.3285 15.7109 22.7384 16.8926 23.5284C17.491 23.9653 18.2172 24.1919 18.9579 24.1726C19.6927 24.192 20.413 23.9652 21.0042 23.5284C22.2003 22.7619 23.591 22.3545 25.0116 22.3545C26.4321 22.3545 27.8229 22.7619 29.0189 23.5284C29.6223 23.9481 30.3397 24.1731 31.0747 24.1731C31.8097 24.1731 32.5271 23.9481 33.1305 23.5284C34.3266 22.7619 35.7173 22.3545 37.1379 22.3545C38.5585 22.3545 39.9492 22.7619 41.1453 23.5284C41.7436 23.9653 42.4698 24.1919 43.2105 24.1726C43.713 24.1726 44.195 24.3722 44.5503 24.7275C44.9056 25.0829 45.1053 25.5648 45.1053 26.0673C45.1053 26.5698 44.9056 27.0518 44.5503 27.4071C44.195 27.7624 43.713 27.962 43.2105 27.962Z" fill="#64C22E"/>
</svg>
